/* XPM */
static char *result[] = {
/* columns rows colors chars-per-pixel */
"64 64 84 1 ",
"  c #010101",
". c #06080A",
"X c #0C0C0D",
"o c #0A0D12",
"O c #0E1014",
"+ c #141414",
"@ c #1B1B17",
"# c #12161D",
"$ c #17181A",
"% c #191B1E",
"& c #212116",
"* c #35351A",
"= c #121722",
"- c #161C25",
"; c #191E25",
": c #171D29",
"> c #191F29",
", c #1C222C",
"< c #1E2532",
"1 c #1F2836",
"2 c #1D2638",
"3 c #1F293A",
"4 c #212123",
"5 c #21242D",
"6 c #212733",
"7 c #222936",
"8 c #242C3B",
"9 c #2B2F38",
"0 c #27303F",
"q c #2B313D",
"w c #343336",
"e c #30323B",
"r c #47471B",
"t c #232E42",
"y c #263143",
"u c #2A3344",
"i c #2B3649",
"p c #2E394C",
"a c #323641",
"s c #323946",
"d c #3F3F43",
"f c #323B4D",
"g c #323C50",
"h c #364155",
"j c #394253",
"k c #374358",
"l c #39455B",
"z c #3D485D",
"x c #3E4A62",
"c c #494748",
"v c #444855",
"b c #444D5E",
"n c #4C4F58",
"m c #515158",
"M c #414E67",
"N c #414F68",
"B c #455064",
"V c #4E5666",
"C c #44526B",
"Z c #5A5B63",
"A c #535B6C",
"S c #5B5F6B",
"D c #475570",
"F c #485774",
"G c #4A5975",
"H c #4D5D7A",
"J c #5C6373",
"K c #66666C",
"L c #676974",
"P c #696C78",
"I c #70737D",
"U c #546585",
"Y c #56688B",
"T c #5A6D8F",
"R c #5C6F91",
"E c #6C7181",
"W c #727581",
"Q c #777986",
"! c #757A8A",
"~ c #617599",
"^ c #7D8396",
"/ c #88858A",
"( c #848898",
") c None",
/* pixels */
"))))))))))))))))))))))))))))))))))))))))))))))))))))))))))))))))",
"))))))))))))))))))))))))))))))))))))))))))))))))))))))))))))))))",
"))))))))))))))))))))))))))))))))))))))))))))))))))))))))))))))))",
"))))))))))))))))))))))))))))))))))))))))))))))))))))))))))))))))",
"))))))))))))))))))))))))))))))))))))))))))))))))))))))))))))))))",
"))))))))))))))))))))))))))))))))))))))))))))))))))))))))))))))))",
"))))))))))))))))))))))))))))))))))))))))))))))))))))))))))))))))",
"))))))))))))))))))))))))))))))))))))))))))))))))))))))))))))))))",
"))))))))))))))))))))))))))))))))))))))))))))))))))))))))))))))))",
"))))))))))))))))))))))))))))))))))))))))))))))))))))))))))))))))",
"))))))))))))))))))))))))))))))))))))))))))))))))))))))))))))))))",
"))))))))))))))))))))))))))))))))))))))))))))))))))))))))))))))))",
"))))))))))))))))))))))))))))))))))))))))))))))))))))))))))))))))",
"))))))))))))))))))))))))))))))))))))))))))))))))))))))))))))))))",
"))))))))))))))))))))))))))))))))))))))))))))))))))))))))))))))))",
")))))))))))))))))))))))))))q8)))))))))))))))))))))))))))))))))))",
"))))))))))))))))))))))))))iujh8)))))))))))))))))))))))))))))))))",
"))))))))))))))))))))))))))M8gzlu))))))))))))))))))))))))))))))))",
")))))))))))))))))))))))))))7gkMzu)))))))))))))))))))))))))))))))",
")))))))))))))))))))))))))))8pkxxh8))))))))))))))))))))))))))))))",
")))))))))))))))))))))))))))8pkxCxp<)))))))))))))))))))))))))))))",
")))))))))))))))))))))))))))8plxHGk8)))))))))))))))))))))))))))))",
")))))))))))))))))))))))))))10pklvf,>))))))))))))))))))))))))))))",
"))))))))))))))))))))))))))):-,:,5e6::)))))))))))))))))))))))))))",
")))))))))))))))))))))))))),-=:,,,q9,68777)))))))))))))))))))))))",
"))))))))))))))))))))))))<<180uifjBCDClfu7)))))))))))))))))))))))",
"))))))))))))))))))))))<678ikBCHURRUDzi8)))))))))))))))))))))))))",
"))))))))))))))))))))))))6<<76979q95%+X))))))))))))))))))))))))))",
"))))))))))))))))))))))))))  .X+r*+@r&X))))))))))))))))))))))))))",
"))))))))))))))))))))))))))#+OXO@&+@&@%))))))))))))))))))))))))))",
")))))))))))))))))))))))))18ueqcc4++wmf))))))))))))))))))))))))))",
"))))))))))))))))))))))))))8ufhV/n+%KSu))))))))))))))))))))))))))",
"))))))))))))))))))))))))))1yigkEP;;WBy))))))))))))))))))))))))))",
"))))))))))))))))))))))))))18upgD(su!jq))))))))))))))))))))))))))",
"))))))))))))))))))))))))))30ypgk^AZKpu7)))))))))))))))))))))))))",
")))))))))))))))))))))))))<3tyippJEvjiu9)))))))))))))))))))))))))",
"))))))))))))))))))))))))),3tyiipb!g8iy8)))))))))))))))))))))))))",
")))))))))))))))))))))))))-:,2tttpLv,1>:)))))))))))))))))))))))))",
"))))))))))))))))))))))))))::;;:;>64;;;-)))))))))))))))))))))))))",
")))))))))))))))))))))))))::,,,,6555,,,;)))))))))))))))))))))))))",
")))))))))))))))))))))))))>,,<66776,6,,,>))))))))))))))))))))))))",
"))))))))))))))))))))))))),,,66767676,,,,))))))))))))))))))))))))",
"))))))))))))))))))))))))),,66871787<,<88))))))))))))))))))))))))",
")))))))))))))))))))))))),8888888878ugfi8))))))))))))))))))))))))",
"))))))))))))))))))))))))<8ugkxxNDUR~Uxi6))))))))))))))))))))))))",
"))))))))))))))))))))))))>18igxCHYTTHlu7:))))))))))))))))))))))))",
")))))))))))))))))))))))))):,2tuiiiyt6-))))))))))))))))))))))))))",
")))))))))))))))))))))))))))) .#):-oo))))))))))))))))))))))))))))",
"))))))))))))))))))))))))))))) )))) )))))))))))))))))))))))))))))",
"))))))))))))))))))))))))))))) )))) )))))))))))))))))))))))))))))",
"))))))))))))))))))))))))))))))))))))))))))))))))))))))))))))))))",
"))))))))))))))))))))))))))))))))))))))))))))))))))))))))))))))))",
"))))))))))))))))))))))))))))))))))))))))))))))))))))))))))))))))",
"))))))))))))))))))))))))))))))))))))))))))))))))))))))))))))))))",
"))))))))))))))))))))))))))))))))))))))))))))))))))))))))))))))))",
"))))))))))))))))))))))))))))))))))))))))))))))))))))))))))))))))",
"))))))))))))))))))))))))))))))))))))))))))))))))))))))))))))))))",
"))))))))))))))))))))))))))))))))))))))))))))))))))))))))))))))))",
"))))))))))))))))))))))))))))))))))))))))))))))))))))))))))))))))",
"))))))))))))))))))))))))))))))))))))))))))))))))))))))))))))))))",
"))))))))))))))))))))))))))))))))))))))))))))))))))))))))))))))))",
"))))))))))))))))))))))))))))))))))))))))))))))))))))))))))))))))",
"))))))))))))))))))))))))))))))))))))))))))))))))))))))))))))))))",
"))))))))))))))))))))))))))))))))))))))))))))))))))))))))))))))))"
};
