/* XPM */
static char *_704a0fbf0e544f6ce6a75283a10da12OGey3fthh8bvNhK0[] = {
/* columns rows colors chars-per-pixel */
"64 64 146 2 ",
"   c #000001",
".  c #01000B",
"X  c #08000B",
"o  c #020014",
"O  c #090014",
"+  c #02001B",
"@  c #0A001C",
"#  c #030023",
"$  c #0A0024",
"%  c #03002B",
"&  c #0D0028",
"*  c #0E0128",
"=  c #0F0129",
"-  c #0E002A",
";  c #08002C",
":  c #09002D",
">  c #0B002C",
",  c #0D012C",
"<  c #0D002E",
"1  c #0E012F",
"2  c #0F012F",
"3  c #0B002B",
"4  c #11022D",
"5  c #12012C",
"6  c #010031",
"7  c #020030",
"8  c #040031",
"9  c #070031",
"0  c #050033",
"q  c #050133",
"w  c #070032",
"e  c #030034",
"r  c #030035",
"t  c #020036",
"y  c #060034",
"u  c #040037",
"i  c #070136",
"p  c #060037",
"a  c #070037",
"s  c #030033",
"d  c #080032",
"f  c #0A0032",
"g  c #0B0032",
"h  c #080035",
"j  c #090036",
"k  c #0A0033",
"l  c #020138",
"z  c #030139",
"x  c #04003B",
"c  c #07003A",
"v  c #03013C",
"b  c #02013E",
"n  c #05003C",
"m  c #05003E",
"M  c #04013E",
"N  c #04003F",
"B  c #07013E",
"V  c #06003F",
"C  c #04003C",
"Z  c #08003B",
"A  c #0B003D",
"S  c #0C003F",
"D  c #0E013F",
"F  c #0A003B",
"G  c #080938",
"H  c #110130",
"J  c #110131",
"K  c #100132",
"L  c #100134",
"P  c #110136",
"I  c #130234",
"U  c #190337",
"Y  c #120138",
"T  c #11013A",
"R  c #14013C",
"E  c #13033B",
"W  c #1A023F",
"Q  c #1E043C",
"!  c #020140",
"~  c #020044",
"^  c #030147",
"/  c #060045",
"(  c #050044",
")  c #0B0141",
"_  c #0A0045",
"`  c #0B0143",
"'  c #0D0C47",
"]  c #03004B",
"[  c #030149",
"{  c #040148",
"}  c #040149",
"|  c #040348",
" . c #04024A",
".. c #02014E",
"X. c #02014F",
"o. c #06014E",
"O. c #04004B",
"+. c #08004C",
"@. c #0B014E",
"#. c #0B014B",
"$. c #120344",
"%. c #140444",
"&. c #120143",
"*. c #1C0443",
"=. c #13024D",
"-. c #1B034B",
";. c #070150",
":. c #020154",
">. c #050053",
",. c #0A0152",
"<. c #06015A",
"1. c #0B035A",
"2. c #120156",
"3. c #180454",
"4. c #13055D",
"5. c #17045D",
"6. c #12025A",
"7. c #12095E",
"8. c #240547",
"9. c #24044B",
"0. c #310A56",
"q. c #380B57",
"w. c #330A59",
"e. c #070465",
"r. c #070264",
"t. c #0A0161",
"y. c #070168",
"u. c #0C066A",
"i. c #0A0168",
"p. c #140563",
"a. c #160363",
"s. c #1D0565",
"d. c #130862",
"f. c #14036A",
"g. c #12096A",
"h. c #160A6A",
"j. c #181061",
"k. c #0D0272",
"l. c #120272",
"z. c #1F0771",
"x. c #170871",
"c. c #16017B",
"v. c #1E0A7B",
"b. c #200469",
"n. c #1C0686",
"m. c #1D0A8C",
/* pixels */
"                                                                                                                                ",
"                                                                                                    . . o                       ",
"            . .                                                                   .   .             o 0 _ % .                   ",
"        o .                                                                         + % + .         + k D 6 .                   ",
"      . + +                                                                   o o   + % % $ @ + .   $ q % o o                   ",
"      . . + .                                                       .       # $ . . # # $ K + + + + = W R # +                   ",
"        o o o .                                                         o # % $ o + # + + = > # + + o Y T # o                   ",
"            . . o . + .                                               . # % o o o @ * $ @ > $ @ @ o $ # o .                     ",
"              . + + # .   .                                         o # + # + o @ @ 4 $ @ $ + # % % % # +                       ",
"        . . . # o . # . .                                         . 6 ] % + o @ o @ = @ @ + & ] ..] v . .                       ",
"      . . . + $ # o . + .                                       . # v o.% + $ @ @ @ + $ $ % g.e.:.../ +   . o . .     .         ",
"        . # B P 4 $ . o                               .           # z 0 > $ o @ $ # # % + v u.] v + o + . % o # % o o 6 .       ",
"      o % d.4.P = K & + .                                   . .   + ! %.0.1 o O & q 0 F q B ] v ] ] .   . 6 s # # # # +         ",
"      . % p.4.0 $ 1 > % .                                   .     . # % $.D $ @ $ % s +./ B @.;.~ z # + + + ! k % # .           ",
"          % q # + $ + # .                                           . o o # @ O @ # % B 6 # D ) s # # S f + % c c % . .         ",
"            o + . o . o o                                               . o o . O @ $ K & > P $.q # + % % $ = $ 6 %             ",
"            . @ @ # o .                                                   $ o   X o o # & j % $ # i F % # *.9.*.% % % .         ",
"      .       $ U 9.g   .                                               . $ o . . o X o f f o + B ,.7.j.&.-.q.-.D c 6 o         ",
"      . o o $ J U Q j o           .                                   . o o . .   . . . o o + # D v.x.h.=.) -.%.k 0 +           ",
"    o $ @ @ 1 4 I = # . .                                             o .       . + + .   . o o F O.' ) % $ $ + P S             ",
"    @ + o o @ $ Q U @ o .   .             .                   .       . o . . . o + +   o + o   . + v % g # + o + D +           ",
"      . o O O 5 *.4 % # o .     + + o o X + + o               o +     # ! 0 % # # @ $ & > D % o . % @.F % g @ o + $ P +         ",
"      . O X O 5 = $ # + + +   o # % + % & + + o       . o . . # # . + # c v q $ # o # P -.) k . # s @.0 + k k 1 $ o # % + .     ",
"      . . X X O O o o @ o . # o + # s % # . . .     . o . o + + + # % # + 6 6 + o o # k $._ F $ $ 6 +.F + % q = @ o . . o       ",
"      . o . X X . . . o + % % @ + F ) 0 6 + . o . . @ + o + + o . o .   + % % . o + o k &.$.> + # % S q % % = o O 5 $ +         ",
"        .   . o + X . # # + + # % ) @.>.:.#   . o @ o + + + $ % o .     o o           c D = @ o # g ) % F q o o % D % 0 % o     ",
"  . o o     . + o . . o +   o q F ) <.r.:.6   . # + @ o   o % + . .     .             + $ + @ o $ I $ + o + o o # 0 z 2.B .     ",
"  @ % o . X o X     . o .     + c / >.] # .   o . . @ $ o o o o   o o .                   o X X O * + # # + . . . # 6.2.B + .   ",
". + % $ o X       o .         f _ / o.;.#   .   . o # $ % o # + .   o                   . o X O X X @ + % s + o + ! 6.! v #     ",
"  o + @ . . . . . o .     o % 6.6.O.O.k.y.6 o % # + _ q 0 $.z o                           @ o o . X o # > F ) % o + / s.<.+     ",
"    . .           X o   o % ,.6.+.v >.c.c.t.s ~ >.v v ! ] a.f                           . o + O . X @ $ T -.#.$ + % _ v.y.s     ",
"                  + o o z s ! / z <.n.l.i.<.% s >./ s ! / ,.B .                       .   . o o . o = j &.0.-.o # k ! ! 6 + .   ",
"                  .   # % c ;.% s / t.<.f.o.1.t.! 6 z % v / S o                               o X o @ 4 Y g @   . % ! >.@       ",
"                . o % M 6 +._   o . _ u.l.,.l.,.# % ! / ! 6 # .                               + o . X g ) # . + . + % +.S       ",
"              + % 0 ;.q % v #   . o + 1.t.,.# . 6 ..c 6 % % +             .                   o +   . = S +   . . . . o .       ",
"            . # > 6 + + # 6 + . + o o % #.,.6 % 1.m./ +     .   . .   .   % o                   . . X # #                       ",
"            . + + % 6 ) 7.c 6 %     % g > F #.z ' 1.+..     .   o # o + . o o                       . o .                       ",
"            . % 0 % # | 1.# + % # + # @ @ # 3 % % % o       .   o s # o + + +               .         .                         ",
"              . + o + 6 # .   . # o . . O @ . o + o . . . o o o o % @ o + o .                       . .                         ",
"                      . .         . . . o o X . @ o . . o % ..z + . o + + # o                                                   ",
"                                      o o X O X . X o . o q :.B # + + $ $ R $                                                   ",
"                .       .       + + % % o o @ . O @ O . . M ! B F % # $ @ = $                                                   ",
"                o         o . + ! >.,.F + ; # # * $ @ o .   + 6 + + $ @ @ o +                                                   ",
"                        . + # # e.k.t.B % _ b.E E J g @ o . # + o o $ O O o .                                                   ",
"        . o o   . # .     . + 6 <.m.u.] % ] z.3.f f > $ . . o . X o . . X o .                                                   ",
"      o # % # . o # # + . . # % ..r.y.] [ ~ B @.) B # . . o # @ . o . o +   . o .                                               ",
"      o + o + + + o o o + # s % s :.~ z v ~ ;.@._ j #   . + o   . o . o .                                                       ",
"      . % # o . . X o . + # % # # 6 6 # % v O.! % @ .   o # . . . . X     . .                                                   ",
"        + # + . . . o o o . o o # # z 6 6 % + + + o     X + . .   X   .   o .                                                   ",
"        . o o . o @ o @ o . . % c s % s + o + + +     . . o .     . .   .               o               .                       ",
"            . . . o . o # . # ,.4._ B % o # + % #     . . o .     o o             . o   .   .           .                       ",
"            . % # # .   + o + 1.b.@.+       # # + o . . . o .     . o .           G ' o .               .   .                   ",
"              o # + +   . . + ] ! +         o o   o o .             .             . # .                                         ",
"  o . .     . + # . # # % % v B # o .     .       . . o .                             . .       . .         .                   ",
"    . + o   .   . o + % / % o     .                 o o                               . o .       .   .       .                 ",
"      + s z 6 . + .   . o .                         o o                                 .                 .                     ",
"      . % v %                                                                                                                   ",
"                                                                                                        .                       ",
"                                                                                                      . .                       ",
"                                                                                                                                ",
"                                                                                                                                ",
"                                                                                                                                ",
"                                                                                                                                ",
"                                                                                                                                "
};
