/* XPM */
static char *_be9626b0bba44c4d1356a174dc314cd5NRrfdk5lIh8Jwhr[] = {
/* columns rows colors chars-per-pixel */
"64 64 205 2 ",
"   c None",
".  c #150E0B",
"X  c #16120D",
"o  c #1A110E",
"O  c #1A190F",
"+  c #1D1411",
"@  c #251A14",
"#  c #2B1D16",
"$  c #2C1F19",
"%  c #221713",
"&  c #1B2112",
"*  c #1E2816",
"=  c #292315",
"-  c #2D2319",
";  c #2B2C19",
":  c #272A17",
">  c #362B15",
",  c #34241C",
"<  c #3A261D",
"1  c #332B1D",
"2  c #3B291E",
"3  c #372916",
"4  c #26321C",
"5  c #2B341D",
"6  c #2F381B",
"7  c #34321D",
"8  c #33391E",
"9  c #3C331D",
"0  c #3D2C21",
"q  c #393321",
"w  c #343D22",
"e  c #3A3B22",
"r  c #422C1E",
"t  c #412F17",
"y  c #44321B",
"u  c #43391D",
"i  c #4A371D",
"p  c #573F1F",
"a  c #432D22",
"s  c #482D20",
"d  c #443225",
"f  c #4C3424",
"g  c #453B27",
"h  c #4E3A2B",
"j  c #4A3927",
"k  c #513523",
"l  c #553C24",
"z  c #5B3C26",
"x  c #503C2D",
"c  c #334225",
"v  c #3A4423",
"b  c #3C4A26",
"n  c #3A4B2A",
"m  c #354E2B",
"M  c #3F512E",
"N  c #3C5631",
"B  c #4D4322",
"V  c #4A442B",
"C  c #4B4C2D",
"Z  c #45482A",
"A  c #564222",
"S  c #5B4524",
"D  c #534924",
"F  c #5D4A23",
"G  c #57462A",
"H  c #43542D",
"J  c #46582F",
"K  c #5C542B",
"L  c #444E30",
"P  c #564332",
"I  c #5C4C36",
"U  c #574934",
"Y  c #4C5432",
"T  c #455C34",
"R  c #4B5C34",
"E  c #455632",
"W  c #58593A",
"Q  c #644B26",
"!  c #644428",
"~  c #664A2B",
"^  c #6D4D2A",
"/  c #644527",
"(  c #734F2C",
")  c #655328",
"_  c #76552C",
"`  c #79592E",
"'  c #604E39",
"]  c #6C5E30",
"[  c #625A3E",
"{  c #755531",
"}  c #795732",
"|  c #7C5A34",
" . c #755D32",
".. c #4F6237",
"X. c #4D643A",
"o. c #4D693D",
"O. c #47653B",
"+. c #51643A",
"@. c #546B3E",
"#. c #6D612F",
"$. c #6D6230",
"%. c #726331",
"&. c #7A6233",
"*. c #7D6A34",
"=. c #7D642A",
"-. c #5A6D42",
";. c #4D7041",
":. c #537243",
">. c #5A7344",
",. c #557947",
"<. c #5D7947",
"1. c #5C7B49",
"2. c #636C44",
"3. c #676744",
"4. c #677C4D",
"5. c #80572E",
"6. c #82592F",
"7. c #855D32",
"8. c #895F32",
"9. c #8A6F2E",
"0. c #8C712E",
"q. c #856135",
"w. c #8B6235",
"e. c #846C35",
"r. c #8B6C35",
"t. c #876138",
"y. c #8C653A",
"u. c #8F683C",
"i. c #906635",
"p. c #946935",
"a. c #996D37",
"s. c #906739",
"d. c #936A3B",
"f. c #9A6E3A",
"g. c #957536",
"h. c #9C7336",
"j. c #947239",
"k. c #9D713B",
"l. c #9A7A37",
"z. c #8C7135",
"x. c #A3753B",
"c. c #A5793B",
"v. c #AB7C3D",
"b. c #A37839",
"n. c #B07F3E",
"m. c #966F40",
"M. c #9C7341",
"N. c #A17641",
"B. c #A67A42",
"V. c #AB7D41",
"C. c #5C844D",
"Z. c #62844E",
"A. c #658B52",
"S. c #6B8C55",
"D. c #648750",
"F. c #659356",
"G. c #699257",
"H. c #6C965A",
"J. c #6E9C5C",
"K. c #71A25F",
"L. c #72A662",
"P. c #72AA62",
"I. c #77B167",
"U. c #9D8233",
"Y. c #A68636",
"T. c #AC823C",
"R. c #A5813C",
"E. c #B4843E",
"W. c #B8873F",
"Q. c #B3893C",
"!. c #BA8A3E",
"~. c #BC933E",
"^. c #BC993D",
"/. c #B49338",
"(. c #C08F3F",
"). c #C4953F",
"_. c #C89B3F",
"`. c #C9A33D",
"'. c #D0A53D",
"]. c #DAB43B",
"[. c #E4BD3D",
"{. c #AE8341",
"}. c #B38441",
"|. c #B68A41",
" X c #BB8C42",
".X c #BC9242",
"XX c #C39543",
"oX c #C59B43",
"OX c #CA9D42",
"+X c #C79B49",
"@X c #CB9F48",
"#X c #CDA343",
"$X c #CFA548",
"%X c #D1A644",
"&X c #D4AA44",
"*X c #D8AF44",
"=X c #D1A648",
"-X c #D7B243",
";X c #DBB445",
":X c #DEB847",
">X c #E2BB46",
",X c #E4BB48",
"<X c #E8BF49",
"1X c #EBC24A",
"2X c #ECCA41",
/* pixels */
"                                                                                                                                ",
"                                                                                                                                ",
"                                                                                                                                ",
"                                                                                                                                ",
"                                                                                                                                ",
"                                                                                                                                ",
"                                                                                                                                ",
"                                                                                                                                ",
"                                      ,.F.;.                                                                                    ",
"                                    O.P.P.L.:.                                                                                  ",
"                                    1.J.H.H.F.c                                                                                 ",
"                                    ,.G.D.D.A.O.                                                                                ",
"                                    o.Z.1.>.1.:.4                                                             N C.m             ",
"                                    n >.@.+.+.@.n                                                           c F.I.C.            ",
"                                      R ..J H H R 5                         A                               ,.J.K.F.5           ",
"                                      8 J H b v b b 4                     _ c.^                         * o.G.G.H.C.            ",
"                                        v b v 8 5 8 8 ;                   w.n.h.                      5 X.C.Z.D.A.X.            ",
"                                        O q e 5 ; ; ; 9 1 X             > k.v.h.                  & c X.@.@.>.1.>.c             ",
"                                          X 1 7 ; = = - , , .           Q k.c.&.                4 b J H J ..+.@.H               ",
"                                            X - - # # @ @ - %         =  .z.z.i             @ 0 Z v v b b M ..M                 ",
"                                              o # @ % o o o % .       D %.$.K           o , a 0 1 7 8 w v b v O                 ",
"N O.                                Q ) u       o - i ) 9.0.h.n.^./.) #.%.%.D F       # a s , , , 1 9 e 8 :                     ",
"F.P.C.E                           y e.e.%.D > F 9.^.-X>X[.>X<X,X>X-Xg.g.g.z.U.-X`.r.r k s r < , , a d 1 O                       ",
"F.L.J.G.,.T c 4 =                   D %.*.e.r.`.>X>X-X*X&X'.%X%X%X'.Q.T.W.Y.'.2X2XY.! z k r r r s f r                           ",
"O.H.G.F.Z.4.@.+.Y Z d q 0 $ @ %       ) b.E.W.%X*X&X'.OX_.).XX).).).!.W.W.!.'.[.].0.` ^ / z p p z k                             ",
"  :.D.Z.<.@...Y C V j d s < a a s r y g.!.(.).'._.).(.!.W.W.W.W.!.!.W.W.!.!.).).!.b.b.p.i.6.( ^ ~                               ",
"    ..:.-.+.Y Z g e a 0 , , , r s z ! 5.n._._.).(.E.E.n.n.W.W.n.W.E.W.W.W.W.W.W.n.n.n.n.v.b.h.i.8.l                             ",
"      c E R Y V g d 0 < , , < r k ! ( 7.p.n.(.n.n.n.n.n.n.W.n.W.W.E.E.W.E.E.W.E.E.E.E.E.Q.Q.T.v.~.~.Q                   : c E o.",
"          ; q 1 0 d a a a s r z ! } 8.a.x.x.v.v.v.v.v.v.n.n.n.n.n.n.n.n.E.n.E.E.}.E.E.E.E.!.!.!.%X;X~.A             - g Y +.<.C.",
"                    # r f z z ^ 7.i.k.x.c.x.x.x.x.x.v.v.v.x.x.x.v.x.v.v.v.v.n.n.n.}.E.}.E.E.W. X#X&X&XT.y       + 0 x C Y ..@.<.",
"                        < ^ } w.a.x.c.v.x.x.k.k.x.x.x.k.a.k.x.x.x.x.v.x.x.v.c.v.v.n.n.}.n.}.E. XXXoX=X$Xj.    % < d j h C Y @.<.",
"                        Q .XT.k.x.v.c.x.x.k.k.x.x.k.a.a.a.a.a.a.a.a.a.a.a.a.x.x.x.v.v.v.n.n.n.E.}. XoX#X+X/ @ , 0 0 s h V W >.4.",
"                      # c.=XXXn.c.c.c.T.Q..XQ.v.b.a.p.p.p.p.p.p.p.p.p.p.p.a.a.a.b.v.Q..XXX.X|.V.}.|. XXX@X{.0 $ , 0 a x I W L w ",
"                @ , < ^ #X@X XV.c.x.T.=X:X:X;X&X_.b.p.i.8.8.i.i.i.8.i.i.i.i.p.x.~.%X;X:X:X:XoXV.n.n.}. X+X+X .@ $ , d x 0       ",
"G.A.4.-.[ I P x x d 2 l.=XXX}.v.x.f.k.Q..X.X#X;X].*XY.8.8.8.8.8.8.8.8.8.8.8.a._.:X;X%XOX.X.XE.c.v.x.x.}. X+X{.< $ 0 0 %         ",
"K.H.S.4.3.[ I x a 0 f .X%X Xn.x.f.f.d.p.d.g.a.b.Q.#X).p.8.8.q.w.i.i.8.8.8.8.n.'.~.T.k.f.k.b.x.x.x.N.x.V.|.XX.XS 0 , .           ",
"J.S.4.2.[ I P j a 0 ~ +X%XE.x.k.s.s.s.s.s.w.w.w.w.p.p.w.w.a.Q._.'.'.).n.p.8.p.p.w.w.i.s.s.f.f.x.k.k.k.N.V.XXXXq.@               ",
"G.S.4.2.[ I P h f 0 7.%XOXn.c.f.a.s.s.p.w.w.w.8.8.6.6.i.Q.*X1X1X<X1X<X<X'.a.8.6.7.8.8.i.i.s.f.f.f.f.f.k.B. X}.s.S 7             ",
"m -.2.3.[ ' P x d , d.%X#Xv.x.a.s.s.s.i.w.w.w.w.6.6.i.Q.>X1X1X1X1X1X1X1X2X'.b.8.7.8.8.8.i.s.p.f.f.f.f.m.B.B.f.s.&.K K B >       ",
"        1 1 - %     j.%X_.V.f.d.s.s.s.w.w.8.8.6.w.w.b.].1X1X1X1X1X1X1X<X<X[.).p.7.8.8.8.8.y.s.d.m.f.d.f.N.N.a.s.&.] %.e.r._ 2   ",
"                  S y.E.).v.f.d.s.s.y.8.y.8.8.8.7.w.Q.<X1X1X1X1X<X1X1X1X1X1X*Xb.6.6.w.8.8.y.y.s.d.f.d.d.M.{.x.e.] ] e.j.c.v.w.> ",
"              ; D  .q.w.k.B.x.d.s.y.s.w.8.8.8.7.6.w.Q.<X1X>X%X!.W.W.).-X<X1X*Xa.8.6.8.w.8.w.y.s.d.d.d.m.N. X.Xu.9 u Q r.c.{.v.Q ",
"            B ) ]  .q.y.y.c.M.d.s.y.w.y.8.y.8.7.7.7.d.|.~.v.0.8.8.6.w.g./.^.c.w.7.7.7.7.8.y.8.s.d.d.s.m.N. X Xt.      y _ a.w.t ",
"          S e.%.#.&.| w.a.Q.B.d.s.s.y.8.8.7.8.7.7.7.7.7.6.6.5.5.5.5.5.5.6.q.6.8.8.7.7.8.y.8.y.s.s.s.m.m.B.}.{.!                 ",
"          w.z.e.] F A  .V.OXV.M.m.8.7.m.m.t.7.7.7.7.7.7.6.6.6.5.5.5.6.6.6.8.| 6.7.7.8.t.t.y.w.y.y.s.m.M.B.{.m.                  ",
"          r.j.&.u     r f.XXXXB.m.m.t.t.7.7.t.7.7.7.7.7.7.6.6.| 6.5.6.6.6.7.7.7.7.7.7.8.t.w.y.y.s.s.m.M.B.N.l                   ",
"          y F >         z N.}.V.m.m.t.t.t.t.t.7.7.7.7.7.6.7.6.6.6.6.6.6.7.7.7.7.7.7.t.w.y.w.y.y.y.m.m.M.M.~                     ",
"                          l s.B.m.m.m.t.m.t.7.m.7.7.7.7.7.7.7.6.6.6.w.6.6.7.7.8.8.t.t.y.w.y.y.s.y.m.m.y.S                       ",
"                            r | M.m.m.y.y.y.7.m.| t.7.t.8.7.7.| 7.7.7.7.8.| 7.7.t.t.t.t.y.u.u.u.m.y.} d                         ",
"                                l 7.u.m.m.m.m.y.m.7.m.t.t.8.m.| t.t.7.7.t.7.m.t.m.7.m.m.u.u.u.u.} x                             ",
"                                    k ' ^ | | | } } ' { } | | | | | | | { { } } { } | 7.| { ~ f                                 ",
"                                                                                                                                ",
"                                                                                                                                ",
"                                                                                                                                ",
"                                                                                                                                ",
"                                                                                                                                ",
"                                                                                                                                ",
"                                                                                                                                ",
"                                                                                                                                ",
"                                                                                                                                ",
"                                                                                                                                ",
"                                                                                                                                ",
"                                                                                                                                ",
"                                                                                                                                "
};
