/* XPM */
static char *b9844e7fea5e4489e0af145ac61813cfrWs9LV2UOofvenTs[] = {
/* columns rows colors chars-per-pixel */
"32 32 121 2 ",
"   c None",
".  c #25431C",
"X  c #2A4D1F",
"o  c #2B521F",
"O  c #2A4C20",
"+  c #2D5321",
"@  c #325B25",
"#  c #336325",
"$  c #376528",
"%  c #376E28",
"&  c #3C6D2D",
"*  c #3E732D",
"=  c #3E7D2A",
"-  c #41762F",
";  c #407F2C",
":  c #417531",
">  c #447C32",
",  c #3F802B",
"<  c #42822D",
"1  c #448A2E",
"2  c #458432",
"3  c #498536",
"4  c #468C31",
"5  c #498B34",
"6  c #4D8B39",
"7  c #4B9435",
"8  c #4E9C36",
"9  c #4E913A",
"0  c #4F9A38",
"q  c #509F37",
"w  c #51953C",
"e  c #519D3A",
"r  c #4FA037",
"t  c #4FA139",
"y  c #50A137",
"u  c #53A43A",
"i  c #55AB3C",
"p  c #58AF3E",
"a  c #57B13D",
"s  c #59B43E",
"d  c #5ABB3F",
"f  c #5AAE41",
"g  c #5BB241",
"h  c #5DBC41",
"j  c #61BE45",
"k  c #5FC442",
"l  c #61C344",
"z  c #63CC45",
"x  c #65C548",
"c  c #66CB49",
"v  c #68CC4A",
"b  c #64D345",
"n  c #65D047",
"m  c #66D347",
"M  c #64D546",
"N  c #64D446",
"B  c #65DD47",
"V  c #68DF47",
"C  c #67D149",
"Z  c #67D548",
"A  c #68D24A",
"S  c #69D24A",
"D  c #69D34B",
"F  c #68D449",
"G  c #68D649",
"H  c #68D44A",
"J  c #69D44B",
"K  c #6BD04C",
"L  c #6BD14C",
"P  c #6BD24D",
"I  c #6BD44C",
"U  c #6BD54C",
"Y  c #6CD54D",
"T  c #6BD54B",
"R  c #6BD94B",
"E  c #6ADE49",
"W  c #6BDD4B",
"Q  c #6ADE4A",
"!  c #6CDF4A",
"~  c #6BD84C",
"^  c #6BDA4C",
"/  c #6DD94D",
"(  c #6DDA4E",
")  c #6EDB4E",
"_  c #6CDD4C",
"`  c #6DDD4D",
"'  c #6FDD4E",
"]  c #70DE4F",
"[  c #70DD50",
"{  c #6CE64A",
"}  c #6EE14E",
"|  c #6BE94A",
" . c #70E44F",
".. c #70E54F",
"X. c #71E94F",
"o. c #71EA4F",
"O. c #71EE4F",
"+. c #70F44D",
"@. c #73F54F",
"#. c #70E150",
"$. c #70E250",
"%. c #70E550",
"&. c #72E551",
"*. c #73E551",
"=. c #73E751",
"-. c #73E552",
";. c #73E652",
":. c #73E851",
">. c #72E951",
",. c #73EA51",
"<. c #74E852",
"1. c #73F351",
"2. c #75F252",
"3. c #76F353",
"4. c #76F154",
"5. c #77FA53",
"6. c #75FC51",
"7. c #76FC52",
"8. c #78F855",
"9. c #79FF54",
"0. c #7AFE55",
/* pixels */
"                                                                ",
"                                                                ",
"                                                                ",
"                                                                ",
"                        ; u d b ` } ^ z g 4                     ",
"                * 7 h D  .X.X.{ X.1.6.9.9.3.Z u                 ",
"            < h / :.O.../ Z b z z N V | +.6.9.5.^ e             ",
"        # f [ -.} W Z z k h d d d d d d k N { 1.5.4.c 2         ",
"      * x [ ^ M z k d d a a a s s s s s s d d z Q O.@.] i o     ",
"    = v Y z l d d a i i a a a a a a a s s s s s d z } o.*.j #   ",
"  # x K k h s p u u u i i i i y y i i i a a a s s s k z W -.j @ ",
"  g K l s p u 8 y r u u r r r r r r y y u u i a a a a d l F / p ",
"5 K l s i e 0 8 8 8 8 7 7 7 8 7 7 8 7 8 8 y y u i p p a d l v K ",
"x c g i 8 7 7 7 7 8 7 7 4 4 4 1 1 1 1 1 7 7 8 y y i u p i s j v ",
"I h i 8 7 7 7 7 7 4 7 u r 1 1 1 1 1 1 1 8 u 8 7 e q u u u i p j ",
"A g u 7 7 5 7 8 u h F / r , , , , , , , q R S j p u u y u e u a ",
"z u 0 7 4 5 p ] ....Z i 1 , , = , , , = < i m =.=.' g 0 0 e e i ",
"l u 7 5 5 5 7 u p y 4 < = = = = , = = = = ; 1 u p i q 7 7 7 w e ",
"l q 7 5 4 1 1 2 < < , = = = < 7 q 7 , = ; ; ; < 1 1 5 7 7 9 w 7 ",
"l e 7 5 5 3 2 2 < < ; = , 8 T ..o.| M 8 ; ; ; ; < 2 2 5 7 9 7 e ",
"z e 7 5 5 1 3 2 < ; ; ; = u l i y s h u < ; ; < < 2 2 5 5 w 5 e ",
"V u 9 5 5 2 < < < ; ; ; = = ; = = ; = = = ; ; ; < < 2 5 5 5 9 w ",
"Z h w 5 5 2 1 2 < ; ; ; = = = = = = = = = ; ; < 2 2 2 5 5 6 9 e ",
"g k i 9 3 3 3 < < ; ; ; = ; = = = = = = ; ; ; < < 2 3 5 3 6 w u ",
"* f g w 6 6 3 2 ; ; < ; ; ; ; ; ; ; ; ; ; ; ; 2 2 5 3 3 5 6 w w ",
"  $ 9 w 9 6 6 3 3 2 3 ; ; ; ; ; ; > ; ; ; 2 2 3 2 2 5 6 6 9 6 @ ",
"    . & 3 6 6 6 3 3 3 3 > > 2 > ; ; > ; 3 2 3 3 3 6 6 6 6 > X   ",
"          @ & > 3 3 > 3 3 > - ; - - - - - > > 3 3 3 > : @       ",
"                  + + + + X                     +               ",
"                                                                ",
"                                                                ",
"                                                                "
};
