/* XPM */
static char *b007e613a4bc4a0fa1d28bcbf017a695n14u4NKYWSnxmJyF[] = {
/* columns rows colors chars-per-pixel */
"64 64 253 2 ",
"   c None",
".  c black",
"X  c #2D2612",
"o  c #2D2613",
"O  c #302914",
"+  c #4C401F",
"@  c #66651F",
"#  c #71602E",
"$  c #73612F",
"%  c #746130",
"&  c #766330",
"*  c #867F2C",
"=  c #AFA13D",
"-  c #A18841",
";  c #BD9F4D",
":  c #BDA04D",
">  c #BEA04D",
",  c #BEA04E",
"<  c #BEA14E",
"1  c #BFA14E",
"2  c #BFA24E",
"3  c #C0A24E",
"4  c #C1A34E",
"5  c #C0A24F",
"6  c #C1A24F",
"7  c #C1A34F",
"8  c #C2A34F",
"9  c #C3A54F",
"0  c #C2A64F",
"q  c #C3A64F",
"w  c #C3A74F",
"e  c #C4A84F",
"r  c #C6AB4F",
"t  c #C3A550",
"y  c #C4A550",
"u  c #C4A650",
"i  c #C5A651",
"p  c #C5A751",
"a  c #C6A751",
"s  c #C6A850",
"d  c #C7A851",
"f  c #C6AA50",
"g  c #C7AC50",
"h  c #C9AA52",
"j  c #CBAB53",
"k  c #C8AE50",
"l  c #CBAC52",
"z  c #CAB050",
"x  c #CAB150",
"c  c #CBB150",
"v  c #CBB351",
"b  c #CCB351",
"n  c #CCB451",
"m  c #CFB751",
"M  c #D1B055",
"N  c #D2B156",
"B  c #D4B256",
"V  c #D4B356",
"C  c #D4B357",
"Z  c #D5B357",
"A  c #D6B557",
"S  c #D0B851",
"D  c #D0B951",
"F  c #D0B952",
"G  c #D1BA52",
"H  c #D1BB52",
"J  c #D2BC52",
"K  c #D3BC52",
"L  c #D3BD52",
"P  c #DCBD55",
"I  c #D7B558",
"U  c #D7B658",
"Y  c #D8B658",
"T  c #D9B759",
"R  c #D9B859",
"E  c #DBB959",
"W  c #DCBA5A",
"Q  c #E0BD5B",
"!  c #E0BD5C",
"~  c #E1BE5C",
"^  c #E2BE5C",
"/  c #E2BF5C",
"(  c #E3BF5D",
")  c #D9C653",
"_  c #DFCE54",
"`  c #E0C156",
"'  c #E0C057",
"]  c #E0C256",
"[  c #E0CE55",
"{  c #E0CF55",
"}  c #E0C05A",
"|  c #E0C15A",
" . c #E4C75B",
".. c #E4C05D",
"X. c #E4C15D",
"o. c #E5C25E",
"O. c #E4CF58",
"+. c #E2D355",
"@. c #E3D555",
"#. c #E4D555",
"$. c #E4D755",
"%. c #E7DA56",
"&. c #E8DB56",
"*. c #E8DC56",
"=. c #E9DC56",
"-. c #E9DD57",
";. c #FADF51",
":. c #FADD52",
">. c #FADD53",
",. c #FADF52",
"<. c #FADB55",
"1. c #F3D45B",
"2. c #F4D55B",
"3. c #FAD75E",
"4. c #FAD75F",
"5. c #F3D958",
"6. c #FAD95B",
"7. c #FADB5B",
"8. c #FADD59",
"9. c #FADC5B",
"0. c #FADB5D",
"q. c #FADC5D",
"w. c #FBDC5D",
"e. c #FADC5F",
"r. c #FADD5F",
"t. c #FCDD5E",
"y. c #FAE248",
"u. c #FAE249",
"i. c #FAE14B",
"p. c #FAE24A",
"a. c #FAE64C",
"s. c #FAE74D",
"d. c #FAE54E",
"f. c #FAE64E",
"g. c #FAE84E",
"h. c #FAE84F",
"j. c #FFF34C",
"k. c #FFF24D",
"l. c #FFF34D",
"z. c #FEF04F",
"x. c #FFF04F",
"c. c #FFF24E",
"v. c #FFF44D",
"b. c #FFF54D",
"n. c #FFF44E",
"m. c #FAE254",
"M. c #FAE357",
"N. c #FAEA50",
"B. c #FAEB51",
"V. c #FEEF50",
"C. c #FEEE51",
"Z. c #FAEF54",
"A. c #FAEF55",
"S. c #FAEE57",
"D. c #F3E459",
"F. c #FCE05B",
"G. c #FCE25A",
"H. c #FDE558",
"J. c #FAE05D",
"K. c #FCE05C",
"L. c #FDE15C",
"P. c #FEE25C",
"I. c #F0E858",
"U. c #F3EB59",
"Y. c #F4ED59",
"T. c #F5EE59",
"R. c #F6EF59",
"E. c #F7EE5A",
"W. c #F7EF5A",
"Q. c #FAEB5B",
"!. c #FAED5B",
"~. c #FBEB5E",
"^. c #FEF050",
"/. c #FFF550",
"(. c #FFF551",
"). c #FAF055",
"_. c #FAF056",
"`. c #FFF654",
"'. c #FFF655",
"]. c #F7F059",
"[. c #F7F159",
"{. c #F7F15A",
"}. c #F8F25A",
"|. c #F8F35A",
" X c #F9F35A",
".X c #FAF35A",
"XX c #FAF35B",
"oX c #FAF459",
"OX c #F9F45A",
"+X c #FAF45A",
"@X c #FAF55A",
"#X c #FBF55A",
"$X c #FAF45B",
"%X c #FBF45B",
"&X c #FBF55B",
"*X c #FAF65A",
"=X c #FBF65A",
"-X c #FBF75A",
";X c #FBF75B",
":X c #FFF758",
">X c #FBF85A",
",X c #FCF95A",
"<X c #EAC560",
"1X c #EAC660",
"2X c #ECC760",
"3X c #EDC861",
"4X c #EEC961",
"5X c #EFCA62",
"6X c #F0CB62",
"7X c #F1CB62",
"8X c #F1CC62",
"9X c #F1CC63",
"0X c #F2CC63",
"qX c #F3CD63",
"wX c #F4CE63",
"eX c #F5CE64",
"rX c #F5CF64",
"tX c #F6CF64",
"yX c #F3D660",
"uX c #F7D762",
"iX c #F7D663",
"pX c #F7D065",
"aX c #F7D165",
"sX c #FAD660",
"dX c #FAD661",
"fX c #FBD763",
"gX c #F8D165",
"hX c #F9D265",
"jX c #F9D266",
"kX c #FAD366",
"lX c #FBD366",
"zX c #FAD267",
"xX c #FAD367",
"cX c #FBD367",
"vX c #FAD464",
"bX c #FAD564",
"nX c #FAD664",
"mX c #FBD466",
"MX c #FBD467",
"NX c #FCD567",
"BX c #FDD567",
"VX c #FDD667",
"CX c #FED667",
"ZX c #FBD961",
"AX c #FBDA60",
"SX c #FBDA61",
"DX c #FADB63",
"FX c #FADE63",
"GX c #FBDE63",
"HX c #FADA64",
"JX c #FBDA64",
"KX c #FBDC64",
"LX c #FDD568",
/* pixels */
"                      `.l.l.l.l.v.l.l.l.l.l.v.l.l.l.l.l.v.v.l.l.l.l.v.l.l.l.l.l.v.l.l.l.l.l.v.                                  ",
"                      `.l.^.C.C.C.C.C.C.C.C.C.C.C.C.C.C.C.C.C.C.C.C.C.C.C.C.C.C.C.^.C.C.C.l.v.                                  ",
"                      `.v.G.bXbXbXbXbXbXbXbXbXbXbXbXbXbXbXbXbXbXbXbXbXbXbXbXbXbXbXbXbXbXZX^.v.                                  ",
"                      `.j.t.zXbXbXzXbXzXMXzXbXMXbXMXzXbXzXbXMXzXMXzXbXMXbXMXzXbXzXzXbXzXdX^.v.                                  ",
"                      `.j.8.MXqXB Z Z Z Z Z Z Z C Z C R eXMX} Z Z Z B B C Z Z Z B B X.bXHX^.v.                                  ",
"                      `.j.G.zX3Xt ; ; ; ; ; ; ; ; ; 1 t qXMXU ; 2 ; ; 2 ; ; ; ; ; ; E zXCX^.v.                                  ",
"                      `.l.L.LX2Xt ; c S S S S S F g 1 d qXMXU 2 t m S S F F F m q 2 T cXZXg.v.                                  ",
"                      `.j.L.zX3Xt 3 %.=X|.|.|.{.&X_ 1 y qXbXY ; m Y.|.|.|.{.&XY.c ; R cXZX`.v.                                  ",
"                      `.l.8.LX2X3 3 -.=X=X=X=X=X&X{ 1 y eXzXY ; c {.=X=X=X|.&XY.b ; E zXfX^.v.                                  ",
"                      `.j.G.cX3Xy 3 =.=XS.a.a.AXKX} 1 h 0XbXY ; c {.=XB.a.m.HXuXl ; E zXfXv.v.                                  ",
"                      `.j.t.cX3X3 3 -.=X).y.y.dXzX! ; y 0XCXY ; v {.=Xa.y.>.zXaXh ; E zXCXg.v.                                  ",
"                      `.j.L.cX3X3 2 =.,XZ.y.i.dXLX! 2 y qXbXY ; v {.&Xa.y.>.zXaXl : R zXHX^.v.                                  ",
"                      `.j.G.zX2X3 3 -.=XS.y.y.dXMXQ 2 y qXzXY ; v {.=Xa.y.>.bXeXh 2 R cXdXl.v.                                  ",
"                      `.j.G.cX3Xy 3 =.=XS.y.i.dXMX! 2 y qXCXY ; v {.=Xg.y.>.zXpXh ; R cXdXC.v.                                  ",
"                      `.v.8.cX3X3 3 =.,X).y.i.dXzX! 2 y 0XbXY ; v {.=Xg.y.>.bXpXj ; Y cXfX^.v.                                  ",
"                      `.v.L.cX3X3 2 =.=XZ.y.y.dXzX! t y eXzXY ; m Y.=Xa.y.>.zXpXj ; E cXfX^.v.                                  ",
"                      `.l.G.cX3Xt 3 -.=XZ.y.i.dXbX! 2 h qXzXY ; v {.=Xg.y.:.zXpXj ; Y bXZX^.v.                                  ",
"                      `.v.8.cX3X3 3 -.=XZ.y.y.dXzXQ ; y qXCXY ; v {.|.g.y.:.bXpXj ; E zXbX^.v.                                  ",
"                      `.l.8.LX3Xt 3 =.=XS.y.i.dXLX! t y qXbXY ; v {.=Xg.y.:.zXpXj ; E zXfX^.v.                                  ",
"                      `.l.G.zX3X3 3 =.=XS.y.y.dXzX! ; y qXzXY ; m {.&Xa.y.:.zXzXj ; Y CXfX^.v.                                  ",
"                      `.j.t.cX3X3 3 -.=XS.y.i.dXbX! 2 h 0XzXY ; c {.=Xg.y.>.bXeXj ; E zXZXC.v.                                  ",
"                      `.j.G.cX3Xt 2 *.=XQ.6.6.zXzXQ ; y 0XCXY ; c {.=XJ.dXdXzXzXj ; E zXCX^.v.                                  ",
"                      `.j.G.cX3X3 3 -.,X~.LXzXMXLXQ 2 d wXbXY ; c {.=XAXcXcXbXzXj ; R zXZX^.v.                                  ",
"                      `.l.G.cX3Xt 3 ) $.O.( X.X.X.B ; y 0XCXY ; g $.$. .X.( X.! y 2 Y bXbX^.v.                                  ",
"                      `.l.G.zX3X3 2 3 ; 2 2 2 3 2 2 ; y 0XCXA ; 1 1 2 2 2 2 2 2 2 ; Y zXdX^.v.                                  ",
"                      `.v.8.cX3Xd y y y q q 9 9 y y y j wXzXE q t t y t y y y y t q W CXCX^.v.                                  ",
"                      `.l.G.zXzX0X0X0X0X7X7X0X7X0X7X0XqXzXdXwX0XqXqX5XqX0X0X0X0X0X7XeXbXZX^.v.                                  ",
"                      `.l.G.CXCXCXCXCXCXCXCXzXbXzXzXCXzXzXzXbXzXbXzXbXzXzXzXbXzXzXLXzXzXdX^.v.                                  ",
"                      `.v.= % % $ & & $ - zXzXzXbXzXzXbXzXzXbXzXzXzXzXbXbXbXzXzXzXbXzXzXbX^.v.                                  ",
"                      `.v.@ . . . . . . + zXbXzXbXzXzXbXzXbXzXzXbXbXzXzXzXzXzXbXzXbXzXbXfX^.v.                                  ",
"                      `.v.- X X O O O X $ zXzXzXzXzXzXzXzXzXbXbXzXzXbXzXzXzXzXbXzXzXbXzXfX^.v.                                  ",
"                      `.v.5.) X.2X1X1X1X .CXzXbXzXbXbXzXbXzXzXzXzXbXzXzXbXbXzXzXbXzXzXbXfX^.v.                                  ",
"                      `.v.L.CXzXbXbXzXzXzXbXzXzXzXzXzXzXzXzXzXzXzXzXzXzXzXbXzXpXzXzXbXzXZXC.v.                                  ",
"                      `.v.8.zXqXZ M M M M M M M M M M U pXCX! M M M M M M M M M M M ! LXHX^.v.                                  ",
"                      `.l.G.cX3Xt ; 2 ; 2 ; 2 : 2 ; 2 y 0XbXU ; 2 2 ; 2 ; 2 2 2 ; ; Y zXdXC.l.                                  ",
"                      `.v.8.cX3Xt 1 m L H S H S S c 2 y 0XbXY 2 q H S H S H H F t 2 E bXCXl.v.                                  ",
"                      `.j.G.zX3Xt ; =.=X|.=X{.|.>X{ ; y qXzXY ; n [.#X|.=X=X=XY.c ; Y zXZX^.v.                                  ",
"                      `.v.L.cX2Xt ; =.=X=XoXoX=X=X{ ; h eXbXY ; n Q.=X|.=X|.|.Y.c ; E zXbX^.v.                                  ",
"                      `.j.8.cX3Xt 3 %.=XS.a.N.6.HXQ , y qXzXY ; c {.=XB.a.m.fXHXl 2 Y zXfX^.v.                                  ",
"                      `.l.L.cX3X3 2 -.>XS.y.i.dXLX! , h eXbXY ; n [.|.N.y.>.bXeXh ; E CXfX^.v.                                  ",
"                      `.v.G.cX3Xt 3 =.=XS.y.y.dXzX! 2 h qXzXY ; n [.=Xa.y.>.bXpXj ; E zXZXC.v.                                  ",
"                      `.v.8.cX3X3 3 =.=X).y.y.dXbX! ; y qXCXY ; b [.=Xg.y.>.zXpXj ; E zXCX^.v.                                  ",
"                      `.l.8.LX3Xt 3 =.=XS.y.i.dXLX! 1 y qXbXY ; c {.=Xa.y.>.MXpXj ; R zXZX^.v.                                  ",
"                      `.l.G.zX3X3 3 =.=XS.y.i.dXzX! 1 h qXzXY ; v {.=Xg.y.>.zXpXj 2 Y bXbX^.v.                                  ",
"                      `.j.t.cX3X3 3 *.>XZ.y.y.dXLX! ; y eXcXY ; v {.|.g.y.:.bXeXj ; E zXHXC.v.                                  ",
"                      `.j.G.cX3Xq 2 *.=XZ.y.y.dXbX! 2 y qXbXY ; v {.=Xg.y.:.zXpXj ; Y bXCX^.v.                                  ",
"                      `.j.G.cX3X3 3 *.>XS.y.i.dXMX! 1 d qXzXY ; m {.=Xg.y.>.bXpXj ; U zXZX^.v.                                  ",
"                      `.v.8.cX3X3 3 *.=XS.y.i.dXzX! , y eXbXY ; c {.=Xa.y.>.zXpXj ; E zXdX^.v.                                  ",
"                      `.l.8.LX2X3 3 =.=XS.y.i.dXzX! 2 y qXzXY ; c {.&Xa.y.>.zXaXj ; Y cXHX^.v.                                  ",
"                      `.l.G.cX3Xt 3 =.=X).y.y.dXbX! t y eXbXY ; v {.=XB.y.>.zXaXj ; E bXCX^.v.                                  ",
"                      `.j.t.cX3X3 3 -.>XZ.y.y.w.ZX| ; y qXzXY ; v {.=Xa.y.>.bXeXj ; E zXdXl.v.                                  ",
"                      `.j.L.cX3Xq 3 %.=XZ.y.i.8.t.P t y eXbXY ; v {.=Xg.y.>.zXpXj ; Y bXbXC.v.                                  ",
"                      `.j.G.zX2Xt 3 =.=XS.:.m.w.t.` 2 y eXzXY ; v {.=Xm.<.6.zXpXj ; E zXfX^.v.                                  ",
"                      `.j.G.cX3X3 3 =.=XQ.w.6.6.8.` 3 y 0XCXY ; m {.=XKXMXMXbXpXj ; E zXfX^.v.                                  ",
"                      `.v.8.cX3Xq 2 $.Y.D.2.2.2.2.P 2 d 0XbXY ; c I.U.yXqXqXqX5Xd ; E zXfX^.v.                                  ",
"                      `.v.L.cX3X3 2 w r d r 9 h y y 2 y 0XCXY ; 2 r g y y d d d 1 2 E zXdX^.v.                                  ",
"                      `.l.8.LX2Xq ; 2 2 ; ; 3 ; ; t 1 y 0XCXY ; 2 2 2 ; 1 t ; ; 2 ; Y bXbX^.v.                                  ",
"                      `.j.G.zXeX! Q ! ! ! ! ! ! ! ! ! X.pXzX2X! ! W ! ! ! ! ! ! ! ! 3XzXZX^.v.                                  ",
"                      `.l.L.zXbXCXzXcXcXLXCXzXcXzXLXMXMXbXzXcXcXLXbXLXbXzXCXcXcXCXzXcXzXCXC.v.                                  ",
"                      `.l.H.ZXZXZXZXZX6.ZXZXZXe.ZXZXAXZX6.ZXZX6.ZXZXZXZXZXZXZXZXZXZXZX6.w.l.v.                                  ",
"                      `.l.l.l.l.l.l.^.j.l.l.l.l.l.j.l.l.l.l.^.j.l.l.l.l.l.l.l.^.l.l.^.j.l.l.l.                                  ",
"                      ,X`.v.`.^.v.`.`.`.`.`.^.`.`.`.`.^.v.`.`.`.`.`.^.`.`.v.`.`.v.`.`.`.`.v.`.                                  ",
"                                                                                                                                ",
"                                                                                                                                "
};
