/* XPM */
static char *_72f2e323d3940f4a37fefe0de6e8b419Rebdz5YuQeTgtTv[] = {
/* columns rows colors chars-per-pixel */
"64 64 126 2 ",
"   c None",
".  c #16130A",
"X  c #241E0F",
"o  c #26200F",
"O  c #272110",
"+  c #2C2512",
"@  c #3A3118",
"#  c #2E2E2E",
"$  c #423E16",
"%  c #4E481B",
"&  c #474632",
"*  c #4E4D33",
"=  c #605F36",
"-  c #616036",
";  c #6F6B37",
":  c #706C38",
">  c #747239",
",  c #7A7739",
"<  c #817D3A",
"1  c #86823B",
"2  c #BFA14E",
"3  c #C2A64F",
"4  c #C5AA4F",
"5  c #C5A650",
"6  c #C7A851",
"7  c #CAAA52",
"8  c #D2B155",
"9  c #D6B658",
"0  c #D8B758",
"q  c #D9B959",
"w  c #DDC156",
"e  c #E5DD49",
"r  c #FADF4D",
"t  c #E5C25E",
"y  c #E8C45F",
"u  c #EBCC5B",
"i  c #E4D656",
"p  c #E6D956",
"a  c #EADE57",
"s  c #EDD159",
"d  c #FADD51",
"f  c #F5D65C",
"g  c #FCDD5E",
"h  c #EBE24A",
"j  c #F0E74B",
"k  c #FAE34C",
"l  c #F7ED4C",
"z  c #FAED4E",
"x  c #FEF24E",
"c  c #EDE257",
"v  c #EEE358",
"b  c #FAE451",
"n  c #F0E758",
"m  c #FCE15C",
"M  c #F3EA58",
"N  c #FFF755",
"B  c #FFF350",
"V  c #FAF358",
"C  c #FBF25B",
"Z  c #FBF35B",
"A  c #FAF458",
"S  c #FBF458",
"D  c #FBF459",
"F  c #FBF559",
"G  c #FBF55A",
"H  c #FBF45B",
"J  c #FBF65A",
"K  c #FFF758",
"L  c #FCF75A",
"P  c #FFF758",
"I  c #FFF95F",
"U  c #EDC761",
"Y  c #EDC861",
"T  c #F0CB62",
"R  c #F1CB62",
"E  c #F1CC62",
"W  c #F1CC63",
"Q  c #F2CC63",
"!  c #F3CD63",
"~  c #F3CE63",
"^  c #F4CE63",
"/  c #F3CD64",
"(  c #F4CD64",
")  c #F4CE64",
"_  c #F5CE64",
"`  c #F5CF64",
"'  c #F6CF64",
"]  c #F6CF65",
"[  c #F5D062",
"{  c #F4D163",
"}  c #F5D263",
"|  c #F4D661",
" . c #F5D761",
".. c #F6D463",
"X. c #F6D064",
"o. c #F6D065",
"O. c #F7D065",
"+. c #F7D165",
"@. c #FAD760",
"#. c #FAD661",
"$. c #FAD562",
"%. c #FAD563",
"&. c #FBD663",
"*. c #FBD763",
"=. c #F9D265",
"-. c #F8D166",
";. c #F9D266",
":. c #F9D366",
">. c #FAD266",
",. c #FAD366",
"<. c #FBD366",
"1. c #FAD267",
"2. c #FBD367",
"3. c #FBD465",
"4. c #FBD466",
"5. c #FCD467",
"6. c #FCD567",
"7. c #FAD961",
"8. c #FADB60",
"9. c #FBDB60",
"0. c #FBD862",
"q. c #FBD962",
"w. c #FBD963",
"e. c #FCDA62",
"r. c #FDDA62",
"t. c #FADE60",
/* pixels */
"                                                                                                                                ",
"                                                                                                                                ",
"                                                                                                                                ",
"                                                                                                                                ",
"                                                                                                                                ",
"                                                                                                                                ",
"                                                                                                                                ",
"        N B B N B N B B N x N B B B N B x N N B N B N B N B N N B N N B N B B N N B N x N B N N N B N B N B N B B N N K         ",
"        B x x x x x x x x x x x x x x x x x x x x x x x x x x x x x x x l z x x x x l x l l x x l x l l x x l x x x x N         ",
"        N x m g m m g g m g g m g g g g m m g g m g g g g m g g B j < ; ; ; ; ; ; ; ; ; ; ; ; : : : : ; ; : : ; ; 1 j N         ",
"        N x q.2.4.-.-.-.-.-.4.-.-.-.-.-.-.-.-.-.4.-.X.-.4.-.' 5.l e & # # # # # # # # # # # # # # # # # # # # # # & h N         ",
"        N B q.' q 8 8 8 8 8 8 8 8 9 ^ } 0 8 8 8 8 8 8 8 8 9 ( *.x e & # # # # # # # # # # # # # # # # # # # # # # * h N         ",
"        N z q.] 6 2 2 2 2 2 2 2 2 5 W ^ 5 2 2 5 2 2 2 2 3 3 T *.x e & # # # # # # # # # # # # # # # # # # # # # # * h N         ",
"        N B q.' 6 3 i a a a a p 4 5 W X.5 5 i a a a a p 4 5 ( *.x e & # # # # # # # # # # # # # # # # # # # # # # * h N         ",
"        N x q.] 6 3 M L H H L M 7 3 W } 6 3 M H J J H M 6 5 ( *.z e & # # # # # # # # # # # # # # # # # # # # # # * h N         ",
"        N x q.] 6 4 v H z z t.7.6 5 W } 6 3 M V z z t.f 6 5 T *.B e & # # # # # # # # # # # # # # # # # # # # # # * h N         ",
"        N x w.] 7 3 n D k r $.^ 6 3 R ( 6 3 M N k k f ( 5 3 T *.x e & # # # # # # # # # # # # # # # # # # # # # # = h L         ",
"        N x w.] 7 3 n L k k $.] 7 5 ( ' 6 3 n D k r *.] 6 6 ( *.B e & # # # # # # # # # # # # # # # # # # # # # # * h N         ",
"        N x w.^ 7 3 n D k k g ^ 6 3 R ' 6 4 M D k k $.( 6 5 ( *.z e * # # # # # # # # # # # # # # # # # # # # # # * h N         ",
"        N x w.^ 7 3 n D k k $.( 6 5 R ' 6 3 M D k r $.] 5 5 T *.B e * # # # # # # # # # # # # # # # # # # # # # # * h N         ",
"        N x w.] 6 3 M D k k %.^ 7 3 W ^ 6 4 M N k k f ^ 6 5 ( *.z e & # # # # # # # # # # # # # # # # # # # # # # * h N         ",
"        B B w.] 6 4 n D k r g ^ 6 3 W ] 6 4 n V k r *.] 6 5 T *.B e & # # # # # # # # & # # # # # # # # # # # # # * h N         ",
"        N x w.^ 6 4 n H k k %.^ 7 3 ^ ^ 6 4 n L k k $.] 5 5 T *.z e & # # # # # # # # # # # # # # # # # # # # # # * h N         ",
"        N x w.^ 6 3 n S k k %.^ 6 5 T ^ 6 3 M D k r $.( 6 5 ( *.z e & # # # # # # # # # # # # # # # # # # # # # # * h N         ",
"        N z q.] 6 3 M H k k 4.] 7 3 R _ 6 4 M L k r $.^ 5 5 ( *.N e & # # # # # # # # # # # # # # # # # # # # # # * h L         ",
"        N x q.' 7 5 n H g %.4.^ 6 5 ( _ 6 4 n D g %.-.] 6 5 T *.z e & # # # # # & # # # # # # # # # # # # # # # # * h N         ",
"        N x q.] 7 4 c M %.] ' T 6 3 R ( 6 3 n M %.-.' T 5 5 W *.z e & # # # # # # # # # # # # # # # # # # # # # # * h N         ",
"        N x q.] 7 2 7 7 7 7 6 6 2 3 ( _ 4 3 7 7 6 7 6 6 3 3 ^ *.N e & # # # # # # # # # # # # # # # # # # # # # # & h N         ",
"        N x q.' 7 4 3 5 5 3 3 3 3 7 ( ^ 7 5 3 3 5 5 3 3 5 6 ^ *.z e & # # # # # # # # # # # # # # # # # # # # # # * h N         ",
"        N x q.2.W W W W T T W W R R -.2.( T T T T Y W W T T -.*.B e & # # # # # # # # # # # # # # # # # # # # # # * h N         ",
"        N z u t t t t y ] -.5.5.<.<.<.2.2.2.$.2.5.5.4.5.5.-.5.q.B e & # # # # # # # # # # # # # # # # # # # # # # * h N         ",
"        N h % X O O o @ 0 5.4.-.<.<.<.' -.2.2.2.-.4.4.-.-.5.4.%.z e & # # # # # # # # # # # # # # # # # # # # # # * h N         ",
"        B h $ . . . . + 9 5.5.-.-.4.4.4.-.4.4.4.-.4.4.5.5.-.2.*.B e & # # # # # # # # # # # # # # # # # # # # # # * h N         ",
"        N z w 9 0 9 9 q ^ 4.4.4.4.4.-.-.4.} 4.4.4.5.-.-.4.5.-.*.z e & # # # # # # # # # # # # # # # # # # # # # # * h N         ",
"        N x q.5.-.X.X.X.^ W ^ ^ W } -.4.] W { W ^ ^ ^ ^ ^ ^ -.*.B e & # # # # # # # # # # # # # # # # # # # # # # * j N         ",
"        N B q.] 7 6 5 6 6 6 4 4 6 6 ] -.7 6 6 6 5 6 6 5 6 7 ^ *.z p & # # # # # # # # # # # # # # # # # # # # # # * r N         ",
"        N B w.^ 7 3 3 4 6 7 4 4 3 5 W ] 6 2 4 6 4 7 4 4 3 3 ( *.z e & # # # # # # # # # # # # # # # # # # # # # # * h N         ",
"        N x w.^ 6 4 c M M M M n 6 5 W W 6 4 c M M M M n 6 5 T *.z e & # # # # # # # # # # # # # # # # # # # # # # * h N         ",
"        N z q.} 6 3 M H L D D M 7 3 W X.6 3 M L V V H M 6 5 T *.B e & # # # # # # # # # # # # # # # # & # # # # # * h L         ",
"        N B q.} 6 3 n H k k *._ 6 3 W X.6 3 M H k k g X.5 5 ( *.B e & # # # # # # # # # & # # # # # # # # # # # # * h N         ",
"        N x w.] 7 3 n D k k $._ 6 3 T ^ 6 4 M N k k %.] 6 5 ( *.z e & # # # # # # # # # # # # # # # # # # # # # # & h L         ",
"        N x w.] 7 3 n D k k $._ 6 3 ( _ 6 4 n V k k f ' 5 5 T *.N e & # # # # # # # # # # # # # # # # # # # # # # * h N         ",
"        N x w.^ 7 3 n D k k *.( 7 3 ( _ 6 3 n D k k %.T 6 5 T *.z e & # # # # # # # # # # # # # # # # # # # # # # * h N         ",
"        N x w.^ 7 3 n D k k g ( 6 6 T ^ 6 4 M D k r %.] 6 5 ( *.z e & # # # # # # # # # # # # # # # # # # # # # # & h N         ",
"        N x w.] 7 3 n D k k $._ 7 3 W ^ 6 4 M N k k f ^ 6 5 ( *.B e & # # # # # # # # # # # # # # # # # # # # # # * h N         ",
"        B B w.] 7 3 n L k r $._ 6 3 W ] 6 4 n V k r *.] 6 5 T *.B e & # # # # # # # # # # # # # # # # # # # # # # * h N         ",
"        N x w.^ 7 3 n D k k $._ 7 3 T ^ 6 4 M D k k $.] 5 5 T *.z e & # # # # # # # # # # # # # # # # # # # # # # * h N         ",
"        N x w.^ 6 3 n N k k $.' 6 5 T ] 6 4 n D k r $.] 6 5 ( *.B e & # # # # # # # # # # # # # # # # # # # # # # * h N         ",
"        N x q.] 6 3 n H k k g ^ 6 3 ( ^ 6 4 M V k k $.^ 5 5 ( *.z e & # # # # # # # # # # # # # # # # # # # # # # * h N         ",
"        N z q.] 6 6 v H k k d f 6 6 ( ^ 6 4 n N k k $.] 6 5 T *.z e & # # # # # # # # # # # # # # # # # # # # # # * h N         ",
"        N x q.] 6 3 M V k r g f 7 3 T ] 6 4 M D b r $.] 5 5 W *.z e & # # # # # # # # # # # # # # # # # # # # # # * h N         ",
"        N x q.^ 6 6 M H g g g f 6 3 T ^ 6 3 M D 5.2.-.( 6 5 ^ *.N e & # # # # # # # # # # # # # # # # # # # # # # * h L         ",
"        N x q.] 5 3 p v s u s u 6 5 T ] 6 3 p n u U U U 5 5 W *.z e & # # # # # # # # # # # # # # # # # # # # # # * j N         ",
"        N x q.] 6 2 3 6 2 3 3 2 2 6 T ] 6 2 3 3 3 5 5 5 2 5 W w.z e & # # # # # # # # # # # # # # # # # # # # # # * h N         ",
"        N B q.-.9 7 7 7 8 7 7 7 7 8 ^ ' 8 7 7 7 7 7 7 7 7 8 ] %.z e & # # # # # # # # # # # # # # # # # # # # # # * h N         ",
"        N z q.-.1.1.-.-.-.-.-.1.-.-.-.2.-.2.-.-.' 1.2.1.o.o.1.4.z e & # # # # # # # # # # # # # # # # # # # # # # & h N         ",
"        N x g g w.w.g 9.9.g w.g 9.9.g g w.g g q.g g q.g 9.g 9.g B a > - - - - - - - - - - - - - - - - - - - - - = , j N         ",
"        B x x x x x x x x x x x x x x x x x x x x x x x x x x x x x l l l l l l l x l l l l l l l l l l l l l l l l x N         ",
"        I N L L N L N L N L L N L N L L L L N L L N L L L N L N N L L L L L L L L L L L N L L L L N L L L L L L L L L I         ",
"                                                                                                                                ",
"                                                                                                                                ",
"                                                                                                                                ",
"                                                                                                                                ",
"                                                                                                                                "
};
