/* XPM */
static char *fb79086723e6478fd1c33f240be4144cx2gGndDqHScboU8r[] = {
/* columns rows colors chars-per-pixel */
"64 64 157 2 ",
"   c None",
".  c #040504",
"X  c #060806",
"o  c #090B07",
"O  c #060908",
"+  c #0A0D0A",
"@  c #0D120D",
"#  c #10150F",
"$  c #12180F",
"%  c #0F1410",
"&  c #111612",
"*  c #141B14",
"=  c #181E16",
"-  c #151D19",
";  c #181E19",
":  c #162016",
">  c #1A2217",
",  c #17211A",
"<  c #1B241C",
"1  c #1E291E",
"2  c #20271E",
"3  c #212A1F",
"4  c #1D2521",
"5  c #1E2A21",
"6  c #1F2C28",
"7  c #1D3126",
"8  c #1B312B",
"9  c #1F3733",
"0  c #212723",
"q  c #222C23",
"w  c #252E29",
"e  c #282F2B",
"r  c #253126",
"t  c #293326",
"y  c #263329",
"u  c #29352B",
"i  c #2C392E",
"p  c #303C2E",
"a  c #263730",
"s  c #2E3732",
"d  c #263933",
"f  c #2D3C31",
"g  c #2B3D39",
"h  c #313D33",
"j  c #343E38",
"k  c #2F4136",
"l  c #334135",
"z  c #384537",
"x  c #35443A",
"c  c #39453B",
"v  c #37493C",
"b  c #3A493D",
"n  c #364A43",
"m  c #3C4C42",
"M  c #3D4F49",
"N  c #3E5144",
"B  c #37514B",
"V  c #3E524B",
"C  c #414E44",
"Z  c #434F48",
"A  c #435346",
"S  c #44534A",
"D  c #49564E",
"F  c #47584C",
"G  c #49594D",
"H  c #455A53",
"J  c #4C5C52",
"K  c #455E5B",
"L  c #495F5B",
"P  c #515F57",
"I  c #4E6155",
"U  c #4E635A",
"Y  c #526356",
"T  c #536559",
"R  c #54655A",
"E  c #54675A",
"W  c #54665B",
"Q  c #53665C",
"!  c #55675C",
"~  c #54675D",
"^  c #56675C",
"/  c #55675F",
"(  c #54655A",
")  c #58675E",
"_  c #53685D",
"`  c #54685D",
"'  c #55685D",
"]  c #56685E",
"[  c #56695F",
"{  c #576A5F",
"}  c #52695F",
"|  c #58685C",
" . c #58695D",
".. c #596B5C",
"X. c #586A5D",
"o. c #596B5D",
"O. c #5A6B5C",
"+. c #5A6B5E",
"@. c #596B5E",
"#. c #546A61",
"$. c #576A60",
"%. c #576A61",
"&. c #566B62",
"*. c #506964",
"=. c #526B61",
"-. c #596A60",
";. c #596C61",
":. c #586D61",
">. c #5B6D61",
",. c #5B6D62",
"<. c #5A6D63",
"1. c #5B6E63",
"2. c #5F6E61",
"3. c #5A6D64",
"4. c #5A6F66",
"5. c #5D6F65",
"6. c #5B6D63",
"7. c #5B7066",
"8. c #5D7065",
"9. c #5D7165",
"0. c #5E7064",
"q. c #5F7165",
"w. c #5F7264",
"e. c #5D7166",
"r. c #5D7167",
"t. c #5E7267",
"y. c #5F7167",
"u. c #57716C",
"i. c #5E7268",
"p. c #5E7269",
"a. c #5E7369",
"s. c #5B7168",
"d. c #607163",
"f. c #627363",
"g. c #617367",
"h. c #647666",
"j. c #617365",
"k. c #617368",
"l. c #60736A",
"z. c #60746A",
"x. c #61766A",
"c. c #63766B",
"v. c #63756B",
"b. c #66796B",
"n. c #64786C",
"m. c #67796C",
"M. c #667A6F",
"N. c #66786D",
"B. c #647A72",
"V. c #677C71",
"C. c #637B73",
"Z. c #687C71",
"A. c #6D7E70",
"S. c #697F77",
"D. c #6B7E73",
"F. c #6C8073",
"G. c #6E8176",
/* pixels */
"                                                                                                                                ",
"                                                                                                                                ",
"                                      w x m c 0 @                                                                               ",
"                                - & l 7.p.[ ~ U s u i 4                                                                         ",
"                            e C Y u i G T [ U J S k H >.J h                                                                     ",
"                        * x P Y ..G k G z.>.[ _ Y y %.b.A.~ m 4                                                                 ",
"                      & S 2.Y Y ..J h C.F.k.+.w...y J V.5.U p.#.m ;                                                             ",
"                    # q Y O.J G Y J i p.7.%.#.%.>.l r >.k.w.5.n.3.w                                                             ",
"                  ; m i F S F p.5.I r v p.m F T I b 3 i _ M.b.[ Y u                                                             ",
"                  m S q V ~ H #.E Y b 1 s x V F I A l i b { [ I J 6                                                             ",
"                e Q J q g H H [ +.T A 1 < g v I I z k b b U b.I l &                                                             ",
"              ; Y p.p.l i n F J [ U m < < u r f N a y k u f S l 4 +                                                             ",
"              x b.w.I v i i G ..w.d.S < : i r r k a 3 a y 1 3 v c 0                                                             ",
"            y G F I I v r r k I n.D.G = % 1 i i u 7 r u u r a b l g , *                                                         ",
"            k I Y h.f.A 7 < 7 B *.K d : : 5 i l i y r i r 5 > l A b k 1 q ,                                                     ",
"          + f I } 7.9.F r : 1 k S k l r 5 i i v y k y r : > y 3 l l u r 5 i <                                                   ",
"          & : 8 9 9 k v 5 > r u k b A y : 5 k k 7 l t 7 1 $ 7 k l x l k < r *                                                   ",
"        + 5 : < 7 y a i 1 7 3 k v b v r * : 7 u k k z b k : > t l b >.S r 5 @                                                   ",
"        % < 1 5 r i A v > 3 k } a.a.T a : 1 i i 7 z E ..Y b 1 7 p i _ m : O .                                                   ",
"        * 1 v 7 k t b l > < $ n I I I a : 3 r l $ v F.f.....z > a : q f s 5 1 < %                                               ",
"      . @ @ V N k u t r : : @ : * 4 v u < u 1 r : z Y E u.F.J 3 y q t l l l y i u u q &                                         ",
"      + $ @ @ 5 i i i r > : @ * < < 7 f 5 5 y i 1 > k z v I J a y k b k l N k l i z l h 6                                       ",
"      = 1 : , q t 2 1 0 2 < : , k k i h r i i < r 1 y z B N A l t k b k 1 0 5 i t a 2 > a %                                     ",
"      * , 1 * @ > b l t y < < y u y l i 7 5 f 5 1 7 r l A F b b t r b t 1 y q < < > y > t j <                                   ",
"      * : q h q 0 q u p y y q q r r l t r u r r < a t v A v k i k t p i i r l i y @ 1 5 q z l *                                 ",
"      < q 3 l h 1 : q q 1 l i l k t i r q q u u y < t y k i t t l i 3 > 3 y l k h i * < i z h u &                               ",
"      0 t q u i 0 i r h 1 < r y i i N t t h F i y * r l i z k i k l z v r 3 t l i i q = - i h h u &               o + @ +       ",
"      < i 1 r t 2 y t i u y u 1 l y i i p < z u r < 1 a t 3 i r $ p p b Y b 3 l u i N u 0 < z g s u * # + + & 2 y * * < = &     ",
"      @ < q i 0 i t 3 r i u u r u z i l b r i u > 1 i i l t b k $ 3 l C .._ u % 5 s l i i < & t u u = < 2 , y u h , = < < ;     ",
"        $ 2 r q u l r u i t u r p b l h b t i i = 3 b q p t y a u q t 1 f s x 4 + < q i k s ; @ , = < = q < < < * & # * * &     ",
"          , p r < y y y l l u y 3 r i r l l 2 s S < l u t 1 l r j D < $ @ > x f < o < b m f 0 +   + * q = ; & +       + , +     ",
"            * 2 q i u q q l i r u i u y q r u ~ E t S h t 1 r r j N.r t y r i y u =   0 b E m &                         y &     ",
"              @ > q q q < q h h l l u t ; % D N.t.s M m l y r p s m.S * q t i i i t o   y U x =                       4 g &     ",
"                  2 0 u q u i i y s < @     Z D.t.b & y k r 3 z q P v.w < 0 1 2 p p * . . * < 2 @                     - w %     ",
"                      ; & = & & +           j v.U A 3 < 3 l q & # s A.D # i t , 3 i < &   o > r ;                   . . +       ",
"                                            < V S G y 3 * l r = 2 < -.v.< , 1 3 q y 2 < + + 2 q <       . X +       . .         ",
"                                              m S J k r u ; q & 2 w m Z.C j ; u A u q 2 -   < t t #         + @ X   X           ",
"                                              S G S f : y & 0 5 ; w s p.Z ) j ; z s 3 u t X % y 0 0 o         * & o             ",
"                                              q x k f < , X # q t w g P D ( d.* @ 0 y ; 4 &   @ < 0 1 o       + - %             ",
"                                              y f z n r <     , = + - C J P D.j @ u h 0 q u     # < r 5 @   X + + & +           ",
"                                            @ i l h.E i $     & < * @ s D P D.D X 2 w u t < &     @ ; t , * w - = 4 X           ",
"                                            + u 1 S T y       + , # # t Z ) D.J   & h i u q &       ; < * + * 4 @ @ X           ",
"                                            + y 2 u m *       X & # < 0 e ) S.D     & w u 2 @         o + O < t t =             ",
"                                      ; m Z ; q i g 0 h s < w w u t & = o D S.J     o q u p * X         X X % < s @             ",
"                                    j -.P s 0 t i m q 5.D.k.m.D t 4 2 X   u N.3.<     2 0 q 2 X               + +               ",
"                                  Z k.m % * b s u c < D D.D.G.D & & < X     D D.J ;   @ > q w * w e                             ",
"                                Z k.h     5 z i q b w P S.D.G.D 0 < q       ; J D.-.D s 0 y y w D Z J                           ",
"                              j 5.s       q a i q * o e D -.J 4 < = @           j P ) j * * - & +   J j                         ",
"                              Y j       = i f h =             % 0 @ .                   X + * %   ; ( s                         ",
"                            - s         0 i l <               * = + .           . .     o q t +     0                           ",
"                                      * q p r X               = @ @             @ +     * C m                                   ",
"                                    o u t k q               @ u 1 @             , ,   X i S t                                   ",
"                                    , i r & +               * q 5 %             o < , r A j &                                   ",
"                                  w i q @                   q q s                 + = 2 0 +                                     ",
"                                s 5.N i @                 * r , -                                                               ",
"                              X g M a <                   = : @                                                                 ",
"                            % & # X                       : * $                                                                 ",
"                          & 2 < #                       + * o @                                                                 ",
"                      + < u @ o                           t q @   %                                                             ",
"                    % 5 q 1                               < x 6 ; * O                                                           ",
"                  = 2 # $ +                               + 4 < 2 X                                                             ",
"                @ = @                                                                                                           ",
"                                                                                                                                ",
"                                                                                                                                "
};
