/* XPM */
static char *result[] = {
/* columns rows colors chars-per-pixel */
"128 32 256 2 ",
"   c black",
".  c #010101",
"X  c #020202",
"o  c gray1",
"O  c #040404",
"+  c gray2",
"@  c #060606",
"#  c #070707",
"$  c gray3",
"%  c #090909",
"&  c gray4",
"*  c #0B0B0B",
"=  c #0C0C0C",
"-  c gray5",
";  c #0E0E0E",
":  c gray6",
">  c #101010",
",  c #111111",
"<  c gray7",
"1  c #131313",
"2  c gray8",
"3  c #151515",
"4  c #161616",
"5  c gray9",
"6  c #181818",
"7  c #191919",
"8  c gray10",
"9  c #1B1B1B",
"0  c gray11",
"q  c #1D1D1D",
"w  c #1E1E1E",
"e  c gray12",
"r  c #202020",
"t  c gray13",
"y  c #222222",
"u  c #232323",
"i  c gray14",
"p  c #252525",
"a  c gray15",
"s  c #272727",
"d  c #282828",
"f  c gray16",
"g  c #2A2A2A",
"h  c gray17",
"j  c #2C2C2C",
"k  c #2D2D2D",
"l  c gray18",
"z  c #2F2F2F",
"x  c gray19",
"c  c #313131",
"v  c #323232",
"b  c gray20",
"n  c #343434",
"m  c #353535",
"M  c gray21",
"N  c #373737",
"B  c gray22",
"V  c #393939",
"C  c #3A3A3A",
"Z  c gray23",
"A  c #3C3C3C",
"S  c gray24",
"D  c #3E3E3E",
"F  c #3F3F3F",
"G  c gray25",
"H  c #414141",
"J  c gray26",
"K  c #434343",
"L  c #444444",
"P  c gray27",
"I  c #464646",
"U  c gray28",
"Y  c #484848",
"T  c #494949",
"R  c gray29",
"E  c #4B4B4B",
"W  c #4C4C4C",
"Q  c gray30",
"!  c #4E4E4E",
"~  c gray31",
"^  c #505050",
"/  c #515151",
"(  c gray32",
")  c #535353",
"_  c gray33",
"`  c #555555",
"'  c #565656",
"]  c gray34",
"[  c #585858",
"{  c gray35",
"}  c #5A5A5A",
"|  c #5B5B5B",
" . c gray36",
".. c #5D5D5D",
"X. c gray37",
"o. c #5F5F5F",
"O. c #606060",
"+. c gray38",
"@. c #626262",
"#. c gray39",
"$. c #646464",
"%. c #656565",
"&. c gray40",
"*. c #676767",
"=. c #686868",
"-. c DimGray",
";. c #6A6A6A",
":. c gray42",
">. c #6C6C6C",
",. c #6D6D6D",
"<. c gray43",
"1. c #6F6F6F",
"2. c gray44",
"3. c #717171",
"4. c #727272",
"5. c gray45",
"6. c #747474",
"7. c gray46",
"8. c #767676",
"9. c #777777",
"0. c gray47",
"q. c #797979",
"w. c gray48",
"e. c #7B7B7B",
"r. c #7C7C7C",
"t. c gray49",
"y. c #7E7E7E",
"u. c gray50",
"i. c #808080",
"p. c #818181",
"a. c gray51",
"s. c #838383",
"d. c #848484",
"f. c gray52",
"g. c #868686",
"h. c gray53",
"j. c #888888",
"k. c #898989",
"l. c gray54",
"z. c #8B8B8B",
"x. c gray55",
"c. c #8D8D8D",
"v. c #8E8E8E",
"b. c gray56",
"n. c #909090",
"m. c gray57",
"M. c #929292",
"N. c #939393",
"B. c gray58",
"V. c #959595",
"C. c gray59",
"Z. c #979797",
"A. c #989898",
"S. c gray60",
"D. c #9A9A9A",
"F. c #9B9B9B",
"G. c gray61",
"H. c #9D9D9D",
"J. c gray62",
"K. c #9F9F9F",
"L. c #A0A0A0",
"P. c gray63",
"I. c #A2A2A2",
"U. c gray64",
"Y. c #A4A4A4",
"T. c #A5A5A5",
"R. c gray65",
"E. c #A7A7A7",
"W. c gray66",
"Q. c #A9A9A9",
"!. c #AAAAAA",
"~. c gray67",
"^. c #ACACAC",
"/. c gray68",
"(. c #AEAEAE",
"). c #AFAFAF",
"_. c gray69",
"`. c #B1B1B1",
"'. c #B2B2B2",
"]. c gray70",
"[. c #B4B4B4",
"{. c gray71",
"}. c #B6B6B6",
"|. c #B7B7B7",
" X c gray72",
".X c #B9B9B9",
"XX c gray73",
"oX c #BBBBBB",
"OX c #BCBCBC",
"+X c gray74",
"@X c gray",
"#X c gray75",
"$X c #C0C0C0",
"%X c #C1C1C1",
"&X c gray76",
"*X c #C3C3C3",
"=X c gray77",
"-X c #C5C5C5",
";X c #C6C6C6",
":X c gray78",
">X c #C8C8C8",
",X c gray79",
"<X c #CACACA",
"1X c #CBCBCB",
"2X c gray80",
"3X c #CDCDCD",
"4X c #CECECE",
"5X c gray81",
"6X c #D0D0D0",
"7X c gray82",
"8X c #D2D2D2",
"9X c LightGray",
"0X c gray83",
"qX c #D5D5D5",
"wX c gray84",
"eX c #D7D7D7",
"rX c #D8D8D8",
"tX c gray85",
"yX c #DADADA",
"uX c gray86",
"iX c gainsboro",
"pX c #DDDDDD",
"aX c gray87",
"sX c #DFDFDF",
"dX c gray88",
"fX c #E1E1E1",
"gX c #E2E2E2",
"hX c gray89",
"jX c #E4E4E4",
"kX c gray90",
"lX c #E6E6E6",
"zX c #E7E7E7",
"xX c gray91",
"cX c #E9E9E9",
"vX c #EAEAEA",
"bX c gray92",
"nX c #ECECEC",
"mX c gray93",
"MX c #EEEEEE",
"NX c #EFEFEF",
"BX c gray94",
"VX c #F1F1F1",
"CX c gray95",
"ZX c #F3F3F3",
"AX c #F4F4F4",
"SX c gray96",
"DX c #F6F6F6",
"FX c gray97",
"GX c #F8F8F8",
"HX c #F9F9F9",
"JX c gray98",
"KX c #FBFBFB",
"LX c gray99",
"PX c #FDFDFD",
"IX c #FEFEFE",
"UX c white",
/* pixels */
":.*.%.$.X.X. .|  . .| ] ' ] [ ..#.*.&.%.$.o. .[ _ ( ^ ^ / ( ` ` ) ( / Q Y I L H G F A C V V V n c l l k f f d i r e w e q 0 9 9 8 9 7 4 4 4 5 3 1 < , 1 2 2 4 6 8 0 w t r r t t r e t y a a y t t y u y u p a p p i i p s s d d d s d f g k z x b m M Z A D D G ",
"=.*.&.%.@.O.O.X. .O.O.| |  ...O.$.=.&.$.@...} ] _ ( / ^ ~ ^ ) ' / ~ ^ ^ Q Y P U K F D Z V Z V M m b c x k h s i y r t t r r q w q w 9 6 6 6 6 4 2 1 < 2 2 3 4 6 7 9 q t t y u u t t u i d g a i i i i u i p s s a p i p a s s s f d d g k z c v n N V A Z A D G ",
"=.=.*.-.-.=.%.#.#.#.$.#.+.+.#.@.o.%.%.+.O.X. .{ ' ) ( ~ ^ ( _ _ ( ! Q Q ! ~ Q T I H D A S S V N M b b b c z g a i t t y u t r r e q 0 8 7 7 8 5 4 2 1 1 1 4 5 5 6 8 0 r u i p p u t y y p f d a s s d d f g g f s a p a s d f g f f f h l v m m N B V Z A S D G ",
";.;.;.-.:.,.>.;.-.=.&.$.$.$.$.+.O.#.&.@.@.+.o...} ` ) ) ` ] ' ` ) / ~ ! / _ ( ! U L L J G D C V N n b v x z g i u u u y i i u t w 9 9 8 8 8 9 8 5 4 4 3 4 6 6 5 6 8 0 e t u p a i t r e y s g f g f d d f g h f f d d f g h h j k k k j z n B V B B V C S D G J ",
"*.%.*.&.=.;.,.1.>.*.$.%.%.#.O.@.O.O.$.+.O.O...| ] ' ' ' ' ] ] ' ( ) _ _ ) / ~ ! ! ! T Y P F D B m n b x z x k s i u i u a d i t r q 0 0 9 9 0 0 7 6 6 5 6 6 6 6 6 9 w r r y p s a i y r t s g h f f f g j k l j f d f g j k k k k z x c n M V Z C C Z Z D F J L ",
"=.=.*.=.=.:.,.,.<.:.-.*.#.O...X.o.O.%.#.+.O. .} [ ' _ ' ] ] ` ) / / _ ` / Q E T W ^ / W Y J Z N n v v x z x x j d s s f g g a u t w w q 0 0 q 9 6 7 8 8 9 7 6 6 8 0 r t t u p s s a i y u f h j j k k k k k k h g d d f g f f f h k l z v m V S F F F D H K P I ",
">.-.-.:.<.>.>.:.,.<.,.=.%.@.X.X.o.O.#.&.$.o.} } [ ] ' ' ' ] _ ( / ^ ^ ^ ! E T T R Q ( W P F V m v l z z l l z k g j j h f f f p y y t e e e w q 9 8 8 8 9 8 9 9 q q t y u i a s f d d s h x x x z l k j h h j h h g f g g f f g h k z x b M V S H L P P I U R W ",
"4.3.1.1.1.<.:.,.,.>.>.:.=.$.+.O.X.O.+.&.*.+. .| { ] ] ' [ { ` _ ( ~ W R Y T T U Y R W T P D V m b x l l z k j l l j j d s h g s p i u r e w w w q 9 8 9 q w e w e r p p p d g j z z z x b m x z k k z z z l k j k k j j h g g g j l x b m M V F J P Y E W Q ! / ",
"q.0.7.6.4.2.<.1.>.:.:.;.:.=.$.O.o.X.+.&.=.%.o. . .} } {  .{ [ _ / Q U P L L I T R T I J H F Z N b x l l k l k z v z h j h h g d p y e e q q q 9 q q 0 0 w w r i a f k j l c b M N N b m n m x c z l z x v b c z x c c z k j j k l z c m M V A G J P T Q ) ` ' ] ",
"r.e.q.w.e.w.8.3.1.>.-.&.&.&.%.$.+.@.@.$.;.*.+.O.+.o...o. .| ` ^ Q T P K K L P I U P L D D A Z C M b c l l c x c c z k j h h f d i u r w e w q 0 q w q w t r r u a h x c b M M M V C N N N N M m n v v b m m n b m M m v z l k l x v m B Z D G J P U R W / ) ' { ",
"t.y.e.e.t.y.w.7.3.,.;.-.%.%.%.%.$.@.%.*.;.*.%.@.$.#.+.O...] ) ~ W Y I I L P P P P L K H D S A A V N n b c c c x z z k h g d f f a i y r e e w 0 w w w e t y i s j x v x z v v b n M n v b v b v x x x v m m M N M N N B M n v v v m B Z D G F G J L I Y W ^ _ ] ",
"p.a.u.t.w.q.0.5.1.;.-.*.*.$.$.#.$.=.=.-.>.;.#.$.&.#.O...} ] / ~ W R T T Y L K I P L K G D Z C B N B N M n b v z c v z j h f h j g a i t r r e q e e t i p p a s f j k j k x x c b n v l z l c c l l k l x x c v b v v n n b b M N B N B V Z Z S D H L U T W / ' ",
"g.h.s.u.w.9.7.5.4.,.;.=.*.$.@.+.#.*.&.*.:.3.;.-.-.*.@.+. .} ' ) / ! W T I I U Y I K J F S C V N M N V B B C M b m m v l j h j l k f a i i u t e r r r t y u u p p f k k l z z x c c c z l l l l l k j k z z z x x x x v b b b m N V C C C Z C Z A F J P U E ~ _ ",
"x.c.d.t.e.9.6.7.5.3.<.:.=.%.#.#.%.*.*.=.>.7.1.>.*.$.%.@.X. . .{ ` ( ^ Q R E E U P J G G S Z V B V N B V Z D Z C Z B M c x c k l z j g d s p u t r t t t u y y p a g j j z c x z x z v z g j k l k j j k z l z x v v b b n m m M V S D S A A A A D G J L U W ~ ~ ",
"v.x.f.i.r.q.8.6.5.4.4.>.;.&.*.&.=.-.>.,.2.6.4.:.&.#.+.O.X.|  .} ] _ / ! Q R U Y L H H G G S Z C C C V C S F G G G S A B n c z x z l k j g d a i y u y y i p p p a g k j z v v x z z b z h h h k l l z x v c v n M N M M N B V C A F H J H H J J L L I Y T R W ~ ",
"M.v.h.a.t.q.7.5.2.2.3.4.1.<.>.:.;.<.2.;.1.3.5.>.=.$.o.X...[ ] { [ ` ) ! T Y U I K H G H J J G F D S S F J F F J U J D Z B v c x l z j j k j d s a a a a a s f s d j l l z b b x x c v z l l k x c c v b n m M N C C V C Z S D F H H J P P J H G H G H K L I Y E ",
"M.v.j.d.y.q.7.5.4.3.4.6.8.6.4.<.;.;.<.:.1.2.3.3.>.#.O...| [ ' ' ` ( ~ E T T T U L J K K K J G G G G G G H F G L T Y H Z V m c x l l k l l x z j h g g d f f g h j x c c b m n m b b m n c c v b m N B C C C A A F D D S A A A S A Z Z A S D D C A S D D G J P I ",
"M.n.l.d.y.w.9.6.6.5.7.q.0.q.3.<.:.:.<.3.4.2.3.7.,.=.+...| [ ' / ^ ^ ! Q E E W T U L K K K K J K J H K L G D H K R W L F A N n v x z z l k l x z l k k h j j z v x b m N B B N B B N V Z Z V V V C A Z Z C N M m B N m m m m m m m m m M N V C C V V Z A D G K L ",
"Z.N.z.g.a.y.w.0.q.q.9.9.9.5.5.1.1.,.4.9.7.4.7.7.5.=.#.O. .{ ) / ~ ~ ~ ! W E E T U I I U U U P P Y U Y I G H P R W ~ R I L G A B N n b v v c v v b b b v v c n B V C C A Z Z S F F D D G F A V M m M M M v c x x c c x z x x c v v v c v b n N B B N B C S F H H ",
"G.C.b.z.j.a.u.y.w.9.0.7.6.6.6.9.7.4.8.r.0.7.q.7.5.,.*.O. .| ' ( / ^ ^ ^ ! Q W R T T R W W Q E T W ~ Q T U Y Y ^ ( _ / E U U L G S Z Z V V V V B C A S A A Z S G P L K G Z V B C C A Z S A V m v c b v c l j h j j k j h h h j l l z l z x c b m N N N B Z D G G ",
"A.C.m.x.z.g.a.y.e.w.9.0.8.8.8.0.q.q.q.i.e.q.w.0.7.5.>.&.+.| [ ` ) / ( / / ( ~ ! ! Q Q ! / ) ) / / _ _ ( / ( / ` ` ' / ~ W R E E R P K H F F F S D F F G F F D G L P F C M b b M M B B Z Z M n v z x z k h f a a d g f d d d f g g j j j k l x c n N B B C D H J ",
"F.A.V.M.n.j.s.p.t.e.w.0.0.9.9.0.w.y.i.f.y.e.r.q.5.3.2.;.$.O...} [ ' ' ` ] { ] ' ] ' ' ` ` ] | X. .| .. .[ { { { | } ` _ ) ~ Q ~ ~ T L H D S Z V V B N V Z A A D K U G V M c x b b n m N C N n c z k k h d s p i p a a p p a a s d f f g h j l z v M V C A F J P ",
"I.L.G.V.b.k.g.d.a.i.y.r.e.e.q.e.t.i.f.f.i.t.y.0.7.4.5.4.>.*.%.@.O.X.X.X.O.@.@.@.@.+.+.@.#.$.%.&.*.$.#.@.o.| [ { } [ ) ! Q Q E T U Y P G S Z B M M m n n M B V S D G F N n v z c x c v b N N m c x l k f s p u u u i a u u u i p p p s f g h k z v m B A G J L Y ",
"!.R.J.A.M.b.z.k.h.d.a.i.u.y.y.i.s.d.d.d.p.i.u.e.9.8.7.q.8.1.>.>.:.;.-.;.:.;.:.>.:.;.*.$.@.@.#.%.@...|  .} ' _ ] { ' / Q R R E I K L L J D C N n b n b c b n N Z A S S N c z x j j h k l v b c z l h k g s i y t y y p t y y u i p i s h h j z c b N C D K I Y E ",
"/.E.L.F.Z.N.n.c.z.k.h.f.s.a.d.g.j.f.s.g.g.s.a.i.e.r.q.0.t.8.4.3.4.2.1.1.1.:.=.=.*.*.$.+.o.....X. .] ) _ ] ' ) ) ' { _ Q T R U I J H J J H Z B v v x v b v b n C D A C M v l z h f g g j l c l l k h j j a i u t t t y y r t u p a s g j l x v n V Z D H P T W ~ ",
"/.W.I.J.D.C.N.m.v.x.l.k.j.j.l.l.j.g.g.f.g.d.s.i.r.w.9.7.8.q.8.7.5.2.<.:.;.*.#.@.O.O.o.X.X. .} | } ] _ ( ( ( ^ ( ` } ` ^ Q E I L L G G G S V M b v x x v b c M B G S Z N n v z j f f f f j z l k l j g f f s s i p i a a s s f h k l c b M C Z A A F G G J J K I ",
"`./.W.U.J.S.C.N.m.b.x.l.h.g.d.a.p.i.p.u.a.a.d.d.r.w.9.7.7.7.8.6.3.>.-.&.$.$.O.X.X.X.X.o.X... .| | ' ) ) _ ` ^ / [ X.X.[ ) ! R P P G G G D Z V B M b v b m N m V F G Z B M m v l g d f f j z x z l l z h h g h h j k l x l x c M M M N M N V V C V B B V V Z F L ",
"_./.W.Y.P.H.S.C.V.m.v.v.l.f.p.u.y.y.p.u.p.y.u.u.e.8.7.5.7.8.w.7.2.:.=.%.$.%.O... .........O.o. ...} { [ ' ) ^ / ' { X.| ` ! T U L K F F S Z C V C C B N C A S F H P D Z Z C M x j d g h k c n b n n m x z x c n m m B N B N N M N m M m n v c v v v v n N B Z G ",
"`./.Q.T.Y.P.J.D.Z.B.m.b.z.j.s.i.a.p.u.y.r.0.q.q.6.6.3.6.8.w.y.w.6.<.-.%.#.%.@.o.X.o... .X.X. . .| [ ' ' ` ^ ! ~ / ` [ { ` ~ Y U P P J G S Z V N N V C C V A H H I Y U H H J A B x l x z v N A Z Z C A C B V N B B N M m m B N N m c z l j j k j k l l z v M C D ",
"]._.^.E.U.K.G.A.C.N.n.c.z.l.h.d.d.s.u.y.w.7.8.6.1.4.6.7.8.0.7.w.0.4.<.-.&.%.%.+... .|  . .} [ | } { ] ` ` ~ ! Q ^ ) ' { ` ! T Y L K K J D A C N B B C S S F G L I R Y I P L K F V B C Z S G P P P P L H Z B N M m M M m b b v c k j g f s d f s f g k z c m C S ",
"'.)./.W.U.J.F.Z.B.b.x.z.l.h.f.g.h.g.p.i.w.7.7.6.3.4.8.q.w.9.8.e.r.0.6.,.-.&.*.#.X. . .} [ [ ] ] [ { [ _ _ ^ ! ! ^ _ { { ' / ! T U K K K G D S Z Z C Z D K J K I E Q ^ Q R R R Y L J J J K L U T U T P J D V B m b c z k h h h g f h d a i i p p a d g l v m V D ",
"/.!.Q.R.I.J.D.B.m.v.x.j.h.d.a.s.h.f.p.a.t.w.e.e.9.9.r.y.e.9.7.0.t.r.0.5.<.;.;.$.+... .{ ] ' ` ' [ { [ ) ) ^ ! ~ / ' { [ ] ' ~ E U L J K H D S A Z S S D J U Y R ~ ( ' ` ^ ^ ^ W Y P G D D F J P L P H A Z B N n z k g d a a d s s g a p p i u a a d h l c m V A "
};
