/* XPM */
static char *_c662cb70a5e40b7ff8676f2f909426fq8WIxDlgOXGneVXG[] = {
/* columns rows colors chars-per-pixel */
"32 32 148 2 ",
"   c None",
".  c #010100",
"X  c #070903",
"o  c #0A0D04",
"O  c #0E1206",
"+  c #111407",
"@  c #121C06",
"#  c #131708",
"$  c #141A0A",
"%  c #1A1F0B",
"&  c #152107",
"*  c #142806",
"=  c #15210A",
"-  c #1C230C",
";  c #1B290B",
":  c #1B320B",
">  c #1D3C0B",
",  c #1D2A13",
"<  c #1E3114",
"1  c #1D3A14",
"2  c #20270E",
"3  c #242B0F",
"4  c #21340E",
"5  c #223E0E",
"6  c #222C12",
"7  c #243213",
"8  c #2A3515",
"9  c #223D12",
"0  c #243518",
"q  c #263A1D",
"w  c #2B3C1B",
"e  c #1F3E21",
"r  c #263E21",
"t  c #23400E",
"y  c #244315",
"u  c #294417",
"i  c #264A14",
"p  c #284B16",
"a  c #25431B",
"s  c #2D431C",
"d  c #274B1F",
"f  c #2A4D1D",
"g  c #31421F",
"h  c #2C531C",
"j  c #2F591F",
"k  c #2C4422",
"l  c #2D4B25",
"z  c #2B4E2A",
"x  c #324522",
"c  c #344B26",
"v  c #324E29",
"b  c #2D5423",
"n  c #2F5823",
"m  c #2D532C",
"M  c #315026",
"N  c #315B25",
"B  c #32532D",
"V  c #38562F",
"C  c #325A2E",
"Z  c #2E5731",
"A  c #2D5A32",
"S  c #2F5E3A",
"D  c #325731",
"F  c #345B33",
"G  c #3A5C33",
"H  c #375D38",
"J  c #356426",
"K  c #36642A",
"L  c #38672E",
"P  c #3C6B2E",
"I  c #376435",
"U  c #3C6336",
"Y  c #3D6D33",
"T  c #34653B",
"R  c #386439",
"E  c #36693E",
"W  c #396B3D",
"Q  c #3E7132",
"!  c #44663B",
"~  c #446C3D",
"^  c #427336",
"/  c #44743B",
"(  c #457A3D",
")  c #487E3F",
"_  c #336540",
"`  c #356B42",
"'  c #3C6C41",
"]  c #367246",
"[  c #3A7344",
"{  c #3D7845",
"}  c #3A7649",
"|  c #3D7C4C",
" . c #4B7143",
".. c #467E40",
"X. c #4B7C41",
"o. c #507547",
"O. c #537549",
"+. c #557A4B",
"@. c #5A7E50",
"#. c #3E8654",
"$. c #4C8344",
"%. c #44804F",
"&. c #518546",
"*. c #548449",
"=. c #5A874E",
"-. c #558A4A",
";. c #548D4C",
":. c #588A4B",
">. c #59894D",
",. c #5B8D4D",
"<. c #5A8F4E",
"1. c #59914F",
"2. c #428655",
"3. c #478B57",
"4. c #458C5A",
"5. c #5A8650",
"6. c #5B8251",
"7. c #44945E",
"8. c #4F925E",
"9. c #5B9050",
"0. c #5D9052",
"q. c #5E9352",
"w. c #5C9550",
"e. c #5E9553",
"r. c #5C9753",
"t. c #5E9855",
"y. c #618C55",
"u. c #608E56",
"i. c #619155",
"p. c #619354",
"a. c #609655",
"s. c #65985A",
"d. c #669E5A",
"f. c #6B995D",
"g. c #6C9A5E",
"h. c #6D9E5F",
"j. c #6AA05E",
"k. c #54A068",
"l. c #6EA161",
"z. c #70A362",
"x. c #72A064",
"c. c #73A465",
"v. c #73A665",
"b. c #73AA66",
"n. c #78AD6A",
"m. c #85BB76",
"M. c #87BE77",
"N. c #87BF78",
/* pixels */
"                                                                ",
"                        X.          s.u.  5./                   ",
"          M.g.  p.N.h.&.*.n.=.      w.>.c.q.)       m.c.        ",
"    f.b.9.t.p.:.X.a.q.;.Y -.) =.u.h P *.l.^ J +.z.p.d.e.l.c.    ",
"      X.( P ^ t.Q *.&.$.*.$.N 1.X.> p $.&.j P ~ r.1.Q / ;.~     ",
"  b j b K p i Y n Y $.C ( ( i Q M * y J h h ( K ( N p N K i p   ",
"    u p N 9 : C f b Y f b L a p 9 & : 5 : 9 f p N > > b i t y   ",
"      a { d * W C q N a < u u 4 * O & & @ & ; 4 9 = ; I b ;     ",
"  { E m R M = D z , s 9 @ - 4 ; O o X o X O + = ; o < W C Z     ",
"  [ { I l x 7 s u , 8 ; o O + $ o . . . . . X O $ $ s M C | {   ",
"  _ E F E k - 2 3 % - # X . . X . . . . . . . . o - 8 k F       ",
"  | { F W D - + $ O X X . . . . . . . . . . . . X + 0 W ` `     ",
"    E R k w - o X . . . . . . . . . . . . . . . X % k m E | `   ",
"    ] | D 8 % o . . . . . . . . . . . . . . . . o 6 q D T       ",
"      F v 8 2 $ o . . . . . . . . . . . . . . X # q F ] ]       ",
"        B r 0 6 + . . . . . . . . . . . . . . o - q Z ]         ",
"        R m x 6 o . . . . . . . . . . . . X X . $ k F E         ",
"        T V c 7 O o X . . . . . . . . . . O - o O r R '         ",
"        E H F D 2 - o o O X . . . . . # , - 6 2 $ 0 F } ]       ",
"      } | E z z w 6 6 r k 6 o X O O + r ' D 8 x r B  . .        ",
"        H U 9 a V v R R G F , % 2 2 6 F 2.#.C D E D ~           ",
"        +.U d T R } ..W ` H 6 7 w 8 w ` 4.7.| ` | ]  .O.        ",
"        6.~ C _ _ ] 2.4.[ z q x x x x Z E | #.T I R O.@.        ",
"          !  .z } ` } | T T c c V ~ +.| l k e 1 F  .            ",
"             .  A T } ] | ] Z ` 8.k.4.E C k : : G o.            ",
"                  e _ _ | }     4.2.S E H                       ",
"                          ]           ` E H                     ",
"                                                                ",
"                                                                ",
"                                                                ",
"                                                                ",
"                                                                "
};
