/* XPM */
static char *cb3d33f966c5481e94869343089718815aTbAwDToRutPTm6[] = {
/* columns rows colors chars-per-pixel */
"64 64 207 2 ",
"   c None",
".  c #010100",
"X  c #060903",
"o  c #0A0D04",
"O  c #0D1206",
"+  c #0F1905",
"@  c #0F1B0B",
"#  c #0F1409",
"$  c #111507",
"%  c #121B06",
"&  c #121608",
"*  c #141A0A",
"=  c #191E0A",
"-  c #152406",
";  c #152906",
":  c #192C07",
">  c #15240A",
",  c #1C230B",
"<  c #172B0B",
"1  c #1B2B0B",
"2  c #1A3206",
"3  c #1B320B",
"4  c #1E3A0B",
"5  c #1B2610",
"6  c #1C2B13",
"7  c #182C16",
"8  c #1B3312",
"9  c #1E3C13",
"0  c #1E3419",
"q  c #1F3A1B",
"w  c #20260D",
"e  c #232B0E",
"r  c #23320E",
"t  c #223C0C",
"y  c #232C12",
"u  c #282F12",
"i  c #243214",
"p  c #2B3414",
"a  c #223D13",
"s  c #2C3B15",
"d  c #243619",
"f  c #293719",
"g  c #243B1C",
"h  c #2C3C1C",
"j  c #313D1B",
"k  c #1F3820",
"l  c #233E22",
"z  c #293D20",
"x  c #23430D",
"c  c #25480E",
"v  c #244314",
"b  c #294514",
"n  c #264B13",
"m  c #294C15",
"M  c #25441B",
"N  c #2D431C",
"B  c #26491A",
"V  c #2B4C1C",
"C  c #32421E",
"Z  c #295116",
"A  c #2C531B",
"S  c #2E5A1C",
"D  c #305D1F",
"F  c #254324",
"G  c #2C4524",
"H  c #2C4B24",
"J  c #234429",
"K  c #264A2C",
"L  c #2B4C2A",
"P  c #294827",
"I  c #324521",
"U  c #334A24",
"Y  c #334E29",
"T  c #31472B",
"R  c #2E5523",
"E  c #2E5823",
"W  c #2C532D",
"Q  c #325525",
"!  c #315C23",
"~  c #34542C",
"^  c #335C2C",
"/  c #385E2A",
"(  c #294F32",
")  c #275031",
"_  c #2A5432",
"`  c #2E5A35",
"'  c #2E5D39",
"]  c #305630",
"[  c #345C33",
"{  c #3A5C33",
"}  c #315F39",
"|  c #395530",
" . c #346425",
".. c #35632B",
"X. c #3A652D",
"o. c #396B2C",
"O. c #376928",
"+. c #366233",
"@. c #3A6335",
"#. c #3B6C32",
"$. c #33643B",
"%. c #396539",
"&. c #35693D",
"*. c #3B6B3D",
"=. c #376836",
"-. c #3E7233",
";. c #3D743C",
":. c #415F38",
">. c #416437",
",. c #44643B",
"<. c #456B3D",
"1. c #456B3B",
"2. c #417535",
"3. c #427A37",
"4. c #44743C",
"5. c #447B3C",
"6. c #48793E",
"7. c #49733E",
"8. c #2F6940",
"9. c #356C42",
"0. c #3B6D41",
"q. c #346742",
"w. c #367246",
"e. c #3B7445",
"r. c #3E7A43",
"t. c #397649",
"y. c #3C7B4B",
"u. c #3C7F50",
"i. c #4C6D42",
"p. c #4C7443",
"a. c #4D7C44",
"s. c #447A44",
"d. c #517646",
"f. c #567D4B",
"g. c #537A49",
"h. c #417F51",
"j. c #46813E",
"k. c #4A823E",
"l. c #3E814F",
"z. c #3E8351",
"x. c #3F8956",
"c. c #458141",
"v. c #4B8544",
"b. c #43844C",
"n. c #45894E",
"m. c #4E8C4A",
"M. c #4B8845",
"N. c #548349",
"B. c #5A854E",
"V. c #548C4B",
"C. c #5A8B4E",
"Z. c #538147",
"A. c #54924D",
"S. c #5A934D",
"D. c #418653",
"F. c #428A56",
"G. c #418D59",
"H. c #4A8B56",
"J. c #5D8552",
"K. c #5A8C52",
"L. c #4E9657",
"P. c #44935D",
"I. c #4A945C",
"U. c #549551",
"Y. c #5D9351",
"T. c #5C9A55",
"R. c #5D9D59",
"E. c #559758",
"W. c #618A55",
"Q. c #638A58",
"!. c #629356",
"~. c #659459",
"^. c #69945D",
"/. c #639D59",
"(. c #6A9B5C",
"). c #609E57",
"_. c #63A25C",
"`. c #6BA35E",
"'. c #469760",
"]. c #4A9761",
"[. c #4C9B64",
"{. c #509963",
"}. c #719C64",
"|. c #54A26A",
" X c #5AA46C",
".X c #6DAA63",
"XX c #6DA561",
"oX c #72A564",
"OX c #71AD66",
"+X c #77A669",
"@X c #77AD69",
"#X c #79AC6B",
"$X c #7BB56E",
"%X c #76B169",
"&X c #7EB570",
"*X c #84BB75",
"=X c #89BE79",
"-X c #81B472",
";X c #8BC37B",
":X c #87C078",
">X c #91CA81",
",X c #93CC83",
"<X c #98D287",
"1X c #9BD58B",
"2X c #A0DB8E",
"3X c #A2DE90",
"4X c #A6E395",
/* pixels */
"                                                                                                                                ",
"                                                                                                                                ",
"                                                                                                                                ",
"                                                                                                                                ",
"                                              Z.Q                       B.&X~.      f.  1.{                                     ",
"                +X<XJ.          =X;Xf.      ^ v.J.#Xd.                { .X$X&X,.  *X1X>.T.Y.              ,.#Xf.                ",
"              g.<X2X=X        d.2X2X*X    <.^ 5.#X1X;Xf.              1._.).XXp.B.2X,X4.A.A.+.            -X4X>X                ",
"    >.B.B.{   ~.;X;X=X    #.5.Z.>X*X;XB.*X-Xo.2.Z.*X&X%X@.            4.A.S.`.,.g.+XoX7.j.v...  ,.+XJ.    ;X,X=XJ.              ",
"    #X,X;X@XN.C.%X.X`.7.>.o.5.6.$XOX.XY.#X-X2.o.D C._.T.K.    B.{     #.3.k.V.{ W.-X7.o.-.3. .  #X<X#XH @.%X$X%XB.,.(.-X*X^.    ",
"    d.#X$XOX/.v.T.U.6.$X*X(.o.X./.v.6.v.!.$XX.A / d.5.j.M.^ Y.,X}.  9  . .X.X.~.:X:XB. .O.O.R @.-X(.C.oXoXN._._.N.`.$X-X&X(.    ",
"      >./.).m.-.M.j.o.!.%X.XS.Q 4.V.~.X.6..X4.M `.#Xo.o.O.X.OX&X/.  v Z Z R 7.XX@X`.O.S S S v <.!.V.XX%XoX2.v.m.3.U._.OXN.      ",
"        @.U.j.E -.o. . ./._.T...X.K.OXV.X.A.v.#.OX.XX.S Z #._.XXa.: x 4 x H m.A.).k.Z c n 7.,.%.5.T.`.XX2.O.-.3...v.T.v.        ",
"A ! ! E v s.j.E S D A n 6.U.v.E E s.)._.+.#.-.s.)._.@.n x o.m.A.4.2 2 2 2 E 3.3.v.S c 4 2.`.a.E 3.A.T.M.A D  . .E j.m.g 4 v 9 3 ",
"o...D ! Z ^ 5. .v Z c x R v.-.B n #.U.V.5.v E -.U.U.5.4 4 ..2.3.#.; ; ; 8 E D  .o.t 4 4 A.T.^ R -.3.m.^ x n S n ! j.X.x Z A S A ",
"B A S A n a #...v 4 t 2 a #.B v t R M.s.c.B 9 ! c.c.c.M ; E  . . .> + + 4 m n A V 2 2 M m.+.B V  .o.3.B 4 x b a  .-.B x c Z A n ",
"    B A b 4 M ! m 3 4 : < +.=.9 2 A l.#.-.R 8 M -.#.#.^ * B m m Z > + + 4 4 4 n 4 1 : H +.M 4 n A ! ..8 2 4 2 B  .R : t c B 8   ",
"      B b a s.=.v 1 1 - g E.E.B ; H ;... .R a 1 R ! Q / 9 a b t x - o + 4 1 : t < - - a a x : b m V Q < : : 3 b ^ W 3 t t 1     ",
"        a Q L.n.B 1 % % W L.L.H + M #.Q Q V i > f A m V A i r 3 3 ; X O : - - : % - % % r 1 1 a b b B % - - 1 v b.m.M t ,       ",
"        % P n.b.=.1 o o W n.n.] O 0 ^ V V V 8 1 % a b s b a 1 ; : % X O * $ + % O O O % 1 % 1 r r s a o O O 1 { n.r.M >         ",
"e.L       7 r.;.=.H o . H ;.;.` O 7 Q b C N 1 1 o ; p r e s , % * & X X O o O O X O o % % $ : , : i 1 X X X q *.s.r.0 @         ",
"I.n.e.&.&.~ +.&.^ Q i X g #.^ / > * V s s s : - o o i , , 1 r O o o o X X X X X X X X O o O O % - r * X . > ^ X.#.&.H =.$.W     ",
"F.F.l.;.=.^ G +.Q C C 1 6 ~ U U 0 # N s p p = $ X X : = * , r $ X X X . . . . X . . . . . X X O % u O . * N V Q =.L ~ ;.b.G.e.  ",
"` n.y.;.+.~ N G U s p p y H s s f O f p e e , X . . $ $ O $ , * . . . . . . . . . . . . . . X X = , X $ p p h U W h #.e.F.I.H.  ",
"  K w.*.{ H H g N s r , , h p u r * e r w , = X . . o X X X o O . . . . . . . . . . . . . . . X $ o O , e r s U d H W [ &.9.`   ",
"' $.$.[ W $.F.y.P s e = & y p w , , = w = & & X . . X . . X X X . . . . . . . . . . . . . . . . X X # = , e h d d [ '           ",
"P.F.l.e.{ q.F.G.9.f u = $ & y = = & O $ & o o . . . . . . . . . . . . . . . . . . . . . . . . . . X o & = y f L e.x.t.          ",
"P.x.t.*.{ G $.u.y.[ y = o o , = $ o o X o X . . . . . . . . . . . . . . . . . . . . . . . . . . . . X o = e z %.r.z._ _ ' K     ",
") $.e.*.{ ~ h z P Y g & o X o & o o . X . . . . . . . . . . . . . . . . . . . . . . . . . . . . . . X o = u Y { w.[ $.l.x.x.$.  ",
"    J $.[ ~ U I j u e = o X . o o . . . . . . . . . . . . . . . . . . . . . . . . . . . . . . . . . X o e j Y { L L e.z.G.P.u.  ",
"    w.].y.[ U h j p u = & X . . X . . . . . . . . . . . . . . . . . . . . . . . . . . . . . . . . . O w u z I d G @.e.t.8.` J   ",
"    q.P.D.y.$.I u w , = & o X . . . . . . . . . . . . . . . . . . . . . . . . . . . . . . . . . X $ w p d 5 5 f G ] L           ",
"      y.y.*.{ ~ I p e = # X X . . . . . . . . . . . . . . . . . . . . . . . . . . . . . . . . . o $ * & > d Y %.e.y.w._         ",
"      L 0.&.| I p y w = & & O X . . . . . . . . . . . . . . . . . . . . . . . . . . . . . . . . X . O 7 P ^ %.w.b.x.y.y._       ",
"          L ~ I p u = > 7 5 $ X . . . . . . . . . . . . . . . . . . . . . . . . . . . . . . . X O * 6 g U ] &.w.9.q.9.w.        ",
"          d L z f u 6 g f , & O X . . . . . . . . . . . . . . . . . . . . . . . . . . . . . . o * , i f H W ` 8.w.)             ",
"          J %.] H d z h i 1 = & X . . . . . . . . . . . . . . . . . . . . . . . . . . . . . X X * , i f g P K u.x.'             ",
"          L %.%.~ P G j u u w & . . . . . . . . . . . . . . . . . . . . . . . . . . . . . . . . o * 6 6 f ~ %.$.x.'             ",
"          L *.%.L Y U j j p = . . . . . . . . . . . . . . . . . . . . . . . . . . . X o # X . . . o y I U ~ @.$.'               ",
"          $.y.[ ] | U j j y # o . . . X . . . . . . . . . . . . . . . . . . . . . X . o * = X . . o , T ~ ~ %.e._               ",
"          ) t.] $.~ U U h w & o X X o X . . . . . . . . . . . . . . . . . . . . . . o # = y = X . o = 6 | %.%.w.y._             ",
"            k &.@.~ ~ U z h = o $ = & X . . . . . . . . . . . . . . . . . . . . . X o & = w p & o o & w y [ e.y.z.x._           ",
"            $.e.$.{ ~ W 0.{ i & y w * O X . . X X X . . . . . . . . . . . . o = > & & = w w s w = & $ = 6 F [ y.G.'.u.          ",
"          ' y.e.*.*.[ t.z.0.G p p w = & o o w u , $ o X . . . . . X X X X X & z ] } d 5 e e p z y w @ l [ =.~ <.0.} (           ",
"        e.G.D.D.y.` P q.0.$.g C u e w = 5 j I I j y = & . . . o o o o o o O 5 L q.t.t.z u p p U G u i +.4.p.,.f.Q.z             ",
"      K F.'.x.y.$.%.N < < 5 H I p s i y Y | | | ~ I f e X X o $ & = * * & = d [ 0.z.x.u.d j j U { L d M p.p.<.d.Q.              ",
"        k _ k { f.+.9 3 ; g | U I j z [ %.%.+.{ { | ~ U & O * = = w w = = e G &.t.x.'.G.] z U ~ $.e.W 7 { J.p.Y T               ",
"              | p.L B 4 8 ` %.| Y G y.y.*.*.%.{ { %.y.] & = w w u u u y e f | w.y.G.'.'.u.P | { %.y.F.$.g p.{                   ",
"            :.p.{ E V B q w.0.%.Y w.G.z.0.*.q.{ %.e.e.7 = w e p p p p u u j { t.z.P.'.G.F.0.L %.0.y.x.P._ ~ p.,.                ",
"          i.~.J.p.+.^ H l l.y.&.[ G.G.z.0.9.q.%.0.y._ 5 y e f j j j j j f U %.u.P.I.I.P.G.x.y.$.e.D.P.P.$.<.J.^.i.              ",
"          Q.}.Q.a.i.E g K x.x.W _ F.G.z.e.s.s.h.F.] z d i f C C j j j j j I ~ *.b.P.'.P.P.x.P.x.W ' t.$.{ a.J.}.~.              ",
"          d.^.J.p.[ Q ^ W l.t.` [ } F.G.F.[.{.[.w.z L l h h I U I I I I I j G N P _ y.P.P.x.x.w.H W W W | p.J.^.d.              ",
"            P T   >.p.*.+.q ) y.t.$.( x.[. X[.} L ~ $.F U U U U Y Y U U Y 0.0.*.Y y g J ) w.` 8 9 #.*.7.,.    P                 ",
"                  p.f.p.^ @ $.x.D.9.[ ` D.F._ J 0.%.9.P L U Y U U U { s.D.].].P._ h Y z O < 3 4 > W p.f.p.                      ",
"                  p.J.a.g @ z.'.t.( z.y._ ' $.q.r.e.e.K L ~ U | i.H. X X[.[.I.9.G U Y z   3 9 9 >   p.J.g.                      ",
"                  ,.Q.i.    q.9.` q.t.'.9.F.t.z.z.y.w._ F [ 0.I.|. X X X].P.9.L | ~ ~ l   3 9 9     <.Q.i.                      ",
"                    g.,.    < 8 8 ( q.t.e.H.q.G.x.z.&.$.7 K I.|.|.|.|.[.F._ $.` { | ~     3 9 8     :.f.z                       ",
"                              7 <   ) 9.h.( _ '.'.t.8.8.    } D.I.[.|.u.k   y.q.@.[ ~     < 8                                   ",
"                                      J J     q.q.8.D.q.        l q.q.      y.w.&.@.[                                           ",
"                                                _ '.z.                      q.u.0.0.9.                                          ",
"                                                ( t.(                         9.` e.t.                                          ",
"                                                                                  K q.K                                         ",
"                                                                                                                                ",
"                                                                                                                                ",
"                                                                                                                                "
};
