/* XPM */
static char *a7433a6175574bcbd46db3dde10030e3Snfyzn2m1aY5Z9EG[] = {
/* columns rows colors chars-per-pixel */
"64 64 170 2 ",
"   c None",
".  c #00003D",
"X  c #010142",
"o  c #080947",
"O  c #0B074A",
"+  c #0B094A",
"@  c #120A4E",
"#  c #12104F",
"$  c #160B50",
"%  c #1A0D52",
"&  c #141451",
"*  c #1B1254",
"=  c #1B1A57",
"-  c #1C1C59",
";  c #221356",
":  c #25145A",
">  c #2C165D",
",  c #221C5C",
"<  c #2C1B5E",
"1  c #22225D",
"2  c #2E1760",
"3  c #2F1B60",
"4  c #301760",
"5  c #331C62",
"6  c #3A1D66",
"7  c #3E1F68",
"8  c #262662",
"9  c #2A2361",
"0  c #2C2C66",
"q  c #342364",
"w  c #3B2367",
"e  c #3D2569",
"r  c #372969",
"t  c #3A2B6B",
"y  c #2E3069",
"u  c #32336C",
"i  c #3C316E",
"p  c #373771",
"a  c #3E3571",
"s  c #373A72",
"d  c #3B3B73",
"f  c #43246B",
"g  c #4A266E",
"h  c #44296D",
"j  c #492B6F",
"k  c #49306E",
"l  c #4C2671",
"z  c #472E71",
"x  c #4C2D72",
"c  c #502772",
"v  c #532C75",
"b  c #582D76",
"n  c #5A2F79",
"m  c #443673",
"M  c #4B3172",
"N  c #413A74",
"B  c #4D3B77",
"V  c #4E3578",
"C  c #4D3C7A",
"Z  c #533275",
"A  c #583477",
"S  c #553578",
"D  c #5B347A",
"F  c #543B7B",
"G  c #5D3A7C",
"H  c #63347D",
"J  c #623A7E",
"K  c #3D4075",
"L  c #404177",
"P  c #46447A",
"I  c #4D477F",
"U  c #454A7D",
"Y  c #52437C",
"T  c #693681",
"R  c #653D81",
"E  c #6A3E82",
"W  c #723E86",
"Q  c #5C4B85",
"!  c #5B5084",
"~  c #535788",
"^  c #5A5288",
"/  c #56598B",
"(  c #664283",
")  c #6C4285",
"_  c #604882",
"`  c #6C4B89",
"'  c #714386",
"]  c #744589",
"[  c #7B458B",
"{  c #734A8A",
"}  c #7B4A8D",
"|  c #60528B",
" . c #6B578F",
".. c #73538E",
"X. c #7D4E90",
"o. c #6D5C92",
"O. c #725490",
"+. c #7C5291",
"@. c #7E5B95",
"#. c #5D6290",
"$. c #6B6C9C",
"%. c #716693",
"&. c #7776A3",
"*. c #737BA5",
"=. c #814B8F",
"-. c #834E91",
";. c #8A4F93",
":. c #855293",
">. c #8B5495",
",. c #815B97",
"<. c #8B5997",
"1. c #8B5798",
"2. c #855D99",
"3. c #8C5A9A",
"4. c #915497",
"5. c #945799",
"6. c #945B9B",
"7. c #9A5D9D",
"8. c #A05E9F",
"9. c #8D609D",
"0. c #94619F",
"q. c #99609F",
"w. c #9464A2",
"e. c #9C65A3",
"r. c #9D68A5",
"t. c #8171A2",
"y. c #8876A6",
"u. c #9475A9",
"i. c #A364A3",
"p. c #A865A4",
"a. c #A268A6",
"s. c #AD69A7",
"d. c #A56CA9",
"f. c #A96DAA",
"g. c #A574AE",
"h. c #AC71AE",
"j. c #A578AF",
"k. c #B173AE",
"l. c #A775B0",
"z. c #AC76B1",
"x. c #A878B1",
"c. c #B376B1",
"v. c #B47BB5",
"b. c #BA7FB7",
"n. c #B67FB8",
"m. c #B97FB8",
"M. c #B685BB",
"N. c #BC83BB",
"B. c #BE89BE",
"V. c #BE8BC1",
"C. c #C18BC1",
"Z. c #C58FC4",
"A. c #C48DC2",
"S. c #C793C7",
"D. c #C892C7",
"F. c #C992C7",
"G. c #C799C7",
"H. c #CA95C9",
"J. c #C993C8",
"K. c #C298C8",
"L. c #CD99CD",
"P. c #CE9BCE",
"I. c #CE9DCE",
"U. c #CA9CCC",
"Y. c #CFA0CF",
"T. c #CFA0CF",
"R. c #CFA1D0",
"E. c #D1A5D2",
"W. c #D3A5D4",
"Q. c #D9B4DB",
/* pixels */
"                                                                                                                                ",
"                                                                                                                                ",
"                                                                                                                                ",
"                                                                                                                                ",
"                                                                                                                                ",
"                                                                                                                                ",
"                                                                                                                                ",
"                                                                                                                                ",
"                                                                  j ) :.;.} ` F                                                 ",
"                                                                ) 7.M.S.b.s.7.[ _                                               ",
"                                                              } f.N.D.H.k.7.-.[ } S                                             ",
"                                                            S c.L.P.L.L.Z.e.W 4.i.]                                             ",
"                                                            [ i.B.I.N.c.c.p.W -.p.W 5                                           ",
"                                                          e :.-.M.L.e.6.>.>.W R 7.H <                                           ",
"                                                          x 4.s.D.H.5.1.] J H T 5.v 5                                           ",
"                                                          D 6.N.L.Z.q.>.H l l c H v                                             ",
"                                                          A -.M.L.v.;.E c c c c 7 6                                             ",
"                                                          A ' b.L.0.G g c H g f f 3                                             ",
"                                                        G } } d.v.] v b g b g 7 7                                               ",
"                                                        <.6.) } >.[ ' q.' b 6 :                                                 ",
"                                                      N ) w.D -.;.;.:.w.S ! D 6                                                 ",
"                                                      9 R w.) >.] -.+.9.z 1 A e                                                 ",
"                                                      e :.,.J -.-.-.R l.( F h 6                                                 ",
"                                                      x 7.6.6.;.4.z.3.r.;.T f                                                   ",
"                                                        ' n.D.d.f.R.C.i.D b A             u = q                                 ",
"                                x J ) )                 ] G.W.M.m.Q.I.B.+.E R h       p u d   , t 5                             ",
"                              ) O.Q M G ) S             1.R.M.n.v.W.B.v.V.e.H G v e u             5                             ",
"                            -.( d U   0 Q R           M M.K.X.r.v.R.E.e.3.Z.6.v b H v g           6 4                           ",
"                          R ' i         y B v       S j.U.w.] r.i.B.I.n.R l.S.2.l l D T T T H v v f                             ",
"                          E j             B G     A -.d.1.} X.r.X.r.g.Z.R X.v.N.d.] g w h b b D g >                             ",
"                        h -.Z             Q x q { s.7.] D E 1.e.] 6.+.Z.} G } ] e.z.1.v 2                                       ",
"                          5.]           u F x 1.B.v.} J S R 1.>.' 6.' c.-.x X.R h D >.>.D > j                                   ",
"                          } f.+.        N S J 7.1.) x R S R :.' G -.R X.[ h x     j G :.=.g w )             f                   ",
"                          x :.h.e.X.W x C x f x f f M ` +.) ) G A ) R ) ` R Z         5 R g h 3.V         6 5                   ",
"                            e J :.:.R 6 m e : q J ) ) ` @.>.:.+.{ +.,.X.R ) ] :.=.E x   < ( w.1.g H h < 6 6                     ",
"                                7 e 5 : F z   J S w M h q < r S ( R Q 5 : < I q M J J S G 3.] h 6 [ >.x >                       ",
"                                        k   e x ] 7.8.[ 7 * , i d - K , P a p 1 - * h A x h w   * f ;.4.f                       ",
"                                      z e   ` h.M.d.' 5 $ : f e t x x g v V     - u = 1 w w         D p.W                       ",
"                    ) J 5               : J x.w.G 5 ; @ $ l =.} D D v T T h         o d &.M         h 7.[ 6                     ",
"                  J )               G E { <.0.{ : f D A x ) 7.p.-.f w [ 4.v +         & U t D         1.[ 7                     ",
"                  ) [           m =.E v v M J 1.J f J { ) { } :.] w < R 8.=.;         X .   j         ;.J 4                     ",
"                  D 5.        d ,.J v f C u = v ) * *   ; 5 x D J 5   A 6.7.e .         . & h ) ' Z [ =.f                       ",
"                    )       | +.J ] <.m 0 d     A :     3 E 6.) x e   e } 8.) +         X * 4 D [ >.=.g :                       ",
"                      S ) R G x h 5.y.#.        S P     w e.H.i.G w     A 7.1.Y U o 0 # - M < 4 g g 7 :                         ",
"                                ) 1.u u         B ~ K   e r.D.3.N ,     q ' 7.{ ^ 9 $.d e M                                     ",
"                                J u.*.1         y o o   w 6.C.+.1       @ w } 8.>.R G J G 5                                     ",
"                                H 9.P u       & - ;     5 } b.-.-       * 6 f J [ ) J S k                                       ",
"                                  =.&.*.1 u & #.Y h       ) M.9./       > H v : e e 5 %.                                        ",
"                                  Z :.,.` o.G ) e         D h.3.0         =.}       t S                                         ",
"                                    h J ) J A e           e :.a.B u       J 6.h     t g                                         ",
"                                                          > D 4...8       h 1.]     t x                                         ",
"                                                            4 J 1.k u       Z :.) Z M 5                                         ",
"                                                              f [ 7.Y $ s   8 q J :.[ e                                         ",
"                                                                7 W 5.=. .q < q z 3 j J                                         ",
"                                                                  4 Z J [ W H b 6 %   j e     j                                 ",
"                                                                      4 5 4 > :         e e h                                   ",
"                                                                                                                                ",
"                                                                                                                                ",
"                                                                                                                                ",
"                                                                                                                                ",
"                                                                                                                                ",
"                                                                                                                                ",
"                                                                                                                                ",
"                                                                                                                                "
};
