/* XPM */
static char *d14795bddb864574dea5dde2d8aea411GSGSaX2Zy8t6kXrG[] = {
/* columns rows colors chars-per-pixel */
"64 64 142 2 ",
"   c None",
".  c #040504",
"X  c #070907",
"o  c #080B06",
"O  c #070B09",
"+  c #0A0D09",
"@  c #0D120D",
"#  c #11150E",
"$  c #0F1310",
"%  c #111611",
"&  c #151C15",
"*  c #191D16",
"=  c #161D18",
"-  c #191E19",
";  c #172116",
":  c #182117",
">  c #15211A",
",  c #1B241C",
"<  c #1E291E",
"1  c #21271D",
"2  c #202A1F",
"3  c #1E2521",
"4  c #1E2B22",
"5  c #212723",
"6  c #232C23",
"7  c #292F27",
"8  c #262E29",
"9  c #282F2B",
"0  c #253126",
"q  c #293327",
"w  c #26332A",
"e  c #2A352B",
"r  c #25382F",
"t  c #2C3A2E",
"y  c #303D2F",
"u  c #2E3631",
"i  c #263D37",
"p  c #2D3C31",
"a  c #313D34",
"s  c #353F39",
"d  c #2F4036",
"f  c #2D423A",
"g  c #334135",
"h  c #35433A",
"j  c #39453D",
"k  c #36493D",
"l  c #3B4A3D",
"z  c #404C3E",
"x  c #2C3F40",
"c  c #2F4844",
"v  c #304743",
"b  c #3C4741",
"n  c #354A42",
"m  c #3D4C42",
"M  c #3F5044",
"N  c #3D5249",
"B  c #414E44",
"V  c #434F48",
"C  c #425245",
"Z  c #44544B",
"A  c #49564D",
"S  c #47594D",
"D  c #4A5A4E",
"F  c #4A5750",
"G  c #455A52",
"H  c #4C5D53",
"J  c #515C55",
"K  c #5C5F5C",
"L  c #4E6155",
"P  c #4C625A",
"I  c #526356",
"U  c #54655A",
"Y  c #5B645D",
"T  c #56695D",
"R  c #5C6A5F",
"E  c #5A6C5F",
"W  c #596A5D",
"Q  c #526860",
"!  c #536960",
"~  c #556A61",
"^  c #566C63",
"/  c #586960",
"(  c #586A60",
")  c #5A6B60",
"_  c #586B62",
"`  c #596C61",
"'  c #586C62",
"]  c #5C6D61",
"[  c #5C6E61",
"{  c #5D6F61",
"}  c #5D6D62",
"|  c #5C6E63",
" . c #5E6F62",
".. c #5B6D64",
"X. c #5A6F66",
"o. c #5B6C63",
"O. c #5E7063",
"+. c #5F7163",
"@. c #5B7066",
"#. c #5D7065",
"$. c #5F7164",
"%. c #5F7265",
"&. c #5D7167",
"*. c #5E7167",
"=. c #5E7367",
"-. c #5E7065",
";. c #5D7269",
":. c #5E7369",
">. c #5B726A",
",. c #5E7770",
"<. c #676A68",
"1. c #617467",
"2. c #637467",
"3. c #617266",
"4. c #617168",
"5. c #607368",
"6. c #627569",
"7. c #627669",
"8. c #60756B",
"9. c #657669",
"0. c #65776B",
"q. c #63756B",
"w. c #67786B",
"e. c #63786E",
"r. c #66786D",
"t. c #68786B",
"y. c #687B6F",
"u. c #6E7170",
"i. c #647A72",
"p. c #677C71",
"a. c #667C74",
"s. c #627A73",
"d. c #6B7E73",
"f. c #6D8075",
"g. c #698078",
"h. c #758D86",
"j. c #838484",
"k. c #848684",
"l. c #A2A2A2",
"z. c gray72",
"x. c gray73",
"c. c #C0C0C0",
/* pixels */
"                                                                                                                                ",
"                                                                                                                                ",
"                                                                                                                                ",
"                                                                                                                                ",
"                                                                                                                                ",
"                                                                                                                                ",
"                                                                                                                                ",
"                                                                                                                                ",
"                                                  u h , O                                                                       ",
"                                                j :.T e C s                                                                     ",
"                                              5 S ~ m h 3.I a                                                                   ",
"                                              9 ` :.a S 8.Z j w , -       3 e e > * j s s 0                                     ",
"                                              = U I p H B J <.J s e h Z Z H L Z 0 l +.{ +.U l : * ,                             ",
"                                                b l h h U U T 8._ 5 D T T | :.Z a I U I W D z t A J z s 6                       ",
"                                                u p h m A u.j.J U , H %.` 5.g.X.g U U L W { z z 7.I L W A y - 1                 ",
"                                              - p w b h Y c.z.j.6 ; B V U ^ :.L t U I H I U g C 2.I W 2.T l B R Z ,             ",
"                                              e g t D e <.l.x.K ; t g k T f.f.q h U =.Q N S g Z 8.t.| D E M M 2.O.Z 0           ",
"                                            C l r p W s s J A g w Z L T g.g.l < Z I ^ S U H 2 l W r.D C C m k %.w.T z :         ",
"                                          C C t q k 8.| B F h d r L T L I T 0 0 S I -.L L f 2 D ^ H C #.T r d L U T m k 6       ",
"                                        x Z g t 6 B I a.e.j t 0 t W =.7.W S d 4 Z ` I L l d d W :.e.L #.^ , l L Z S M G t       ",
"                                      , i r l r 0 D Z H S g g < g 8.h.>.k t w t T 7.{ S g t d S U U S L k 2 l M M Z f 4 @ o     ",
"                                    4 d d g n e r D Z L N g 0 < l D P L L d < d T g.^ f 4 0 g I W H L S d < k L L I G e , &     ",
"                                  3 C C Z k h , r M Z L M g < , l N C P N 4 < d d k N i ; < l +.f.E L g 2 2 z @.>.P k p w &     ",
"                                @ h P H M g w , t p d e e 4 & w d S D M h 0 ; d M k k d ; < k N f c f < < 2 l N S Z 3 @ * ,     ",
"                                e j l a g l q < m Z g g 0 # < d k g M g p > & r m h r 0 < < t r r 4 > & 4 < e 0 < 6 # * < 6     ",
"                              , t a y ; t g q ; S #.t t < 0 Z I U l 6 6 0 , & d I =.' Z 0 < t l d 0 4 < < > 6 p 0 0 0 ; & &     ",
"                              e C z y 2 g e < 6 D k < q < Z E -.2.g   o # < ; d P I L r & , t C w d 0 d , & y 0 e q ; < & @     ",
"                            , D E I : 7 t r q 6 h q 0 0 t ^ ,.^ L q       & , t f > ; # # ; 4 q q r m n @ ; g 2 < ; < & + .     ",
"                            t W W g & e g p t e d l t 6 0 H N l g &         ; r 4 < , @ * ; 2 e t t 4 # # & 2 2 : < % o .       ",
"                          % p p q # - 6 g t 2 q d k e e F a C m r ,           : p g e > , : 0 1 2 q < ; : 2 t e , , & @         ",
"                          , l g , < 8 e d r * 2 t l < e r.s B l e < X           & e e 6 , 6 t t l < % ; 5 & w , e 4 @           ",
"                          5 j a < e t r t t & t d t 0 j 8., a l t q 5             @ & < t 0 p 0 < < e g 2 , 1 , & O             ",
"                          6 a a 8 s g t t q # t g y e B U + & e q < j m               + 3 = , , : : e 8 % % @                   ",
"                          q a a 6 Z j 8 g 8 @ l C g e b j   $ a r 0 e 3.j                     X O                               ",
"                  ,       5 t h 6 H m 8 y , @ A z g 8 a 8     = < g 0 b q.u                                                     ",
"                b 9       < e e 0 U B 6 p :   e g y 4 u 8     * t g 0 , J o.5     3 6 5 5 3                                     ",
"                A         = r g h o.V 8 g 5   + # 0 < y e     + t t t 0 8 | U 3 F 4.J V j m F u                                 ",
"              e U         , B C a o.D 6 e 8   . , q & h s       % z t q 5 a p.U b u =       5 B 8                               ",
"              s 6.9       = G F 7 6.U 6 t e @   : 0 2 j A         e 2 t a 5 b d.T 3             -                               ",
"              s d.Z       & 4 % - q.4.9 6 2 %   & e 6 j | 3         o , 7 u 7 j 5.o.u                                           ",
"              e d.r.a     , & o 8 d.r.8 - 0 &   % 6 6 e d.H 3         - 3 a j : 2 j W A 5                                       ",
"                J d.r.J a - 1 % a d.U - 5 , %     * q 8 t.d.4.A a e b o.b : % 2 g 5 5 B _ J j 8 3                               ",
"    . X         3 H t.U 8 e e , V A - = e < @     , t , _ d.d.d.d.p.d.d.V X   - 5 & w & 5 U d.i.<._ U J J F b u 8         9 e - ",
"    . X % % + @ . % 8 5 , e 8 % 5     + : ,       * e 6 9 o.d.f.d.d.d.A             % + % , V | U r.| _ 8.f.I Z B / F b J V s 3 ",
"        + $ & 3 & , 8 , : + $         X & #         q 0 O - j H T K j                   $ : % % % m 8   u F 3   = s     5 -     ",
"              $ , , , - # .           * , #         @ 2 @                                 O , %                                 ",
"                    .               & 6 *             , *                                   @ 6 +                               ",
"                    X = & X $ & , 8 4 :               @ 8 %                                   O + X                             ",
"                  % + % @ O & 8 q * . X                 8 e %   + @ # O                                                         ",
"                  +           @ + +                       3 0 6 1 , 5 e %                                                       ",
"                                                            + O @     & 6                                                       ",
"                                                                        -                                                       ",
"                                                                                                                                ",
"                                                                                                                                ",
"                                                                                                                                ",
"                                                                                                                                ",
"                                                                                                                                ",
"                                                                                                                                ",
"                                                                                                                                ",
"                                                                                                                                ",
"                                                                                                                                ",
"                                                                                                                                ",
"                                                                                                                                ",
"                                                                                                                                "
};
