/* XPM */
static char *f82a411bbfe24804c5b60947cb129cc2NAfeeLiDbTs0IJIX[] = {
/* columns rows colors chars-per-pixel */
"32 32 137 2 ",
"   c None",
".  c #262724",
"X  c #282728",
"o  c #352849",
"O  c #3A2954",
"+  c #462D6F",
"@  c #4D3A64",
"#  c #583F75",
"$  c #552D97",
"%  c #5A2EA4",
"&  c #5F33A5",
"*  c #6737B4",
"=  c #764FA6",
"-  c #7950AB",
";  c #7539D6",
":  c #783FD7",
">  c #793BDC",
",  c #7433E1",
"<  c #7B3CE2",
"1  c #7B44CB",
"2  c #7F46D7",
"3  c #7E43DC",
"4  c #7F43E2",
"5  c #863BDE",
"6  c #BB3AE6",
"7  c #D103D1",
"8  c #D704DA",
"9  c #D803DA",
"0  c #DF36D8",
"q  c #E12BDC",
"w  c #E335DD",
"e  c #E13BDB",
"r  c #DA11E6",
"t  c #E202E2",
"y  c #E108E8",
"u  c #E319E3",
"i  c #E521E2",
"p  c #8D5ACA",
"a  c #8042DE",
"s  c #824BDB",
"d  c #8B4FDF",
"f  c #994CDF",
"g  c #9F57DF",
"h  c #965EDB",
"j  c #9A5FDE",
"k  c #AB4FD4",
"l  c #A752D7",
"z  c #A650DC",
"x  c #AD54DB",
"c  c #AF5EDD",
"v  c #BE58D7",
"b  c #B152D9",
"n  c #B35CDD",
"m  c #BF5AD8",
"M  c #9960DE",
"N  c #9D6DDC",
"B  c #B861CE",
"V  c #BB66DE",
"C  c #BC68DF",
"Z  c #8444E4",
"A  c #8649E4",
"S  c #894AE4",
"D  c #8C4CE8",
"F  c #9042E4",
"G  c #944AE0",
"H  c #8D54E4",
"J  c #8F50E8",
"K  c #9256E6",
"L  c #945AE5",
"P  c #9B5DE5",
"I  c #9255E8",
"U  c #9358E8",
"Y  c #995CE8",
"T  c #AF4CE7",
"R  c #B544E7",
"E  c #B04CE7",
"W  c #B249E8",
"Q  c #A25CE3",
"!  c #9661E5",
"~  c #9E62E6",
"^  c #9766E8",
"/  c #9F63E8",
"(  c #9A6AE8",
")  c #A065E7",
"_  c #AD64E3",
"`  c #A26BE7",
"'  c #AB69E1",
"]  c #A064E9",
"[  c #A26DE8",
"{  c #B566E1",
"}  c #BB66E5",
"|  c #B86EE5",
" . c #A573E7",
".. c #AA71E6",
"X. c #A678E5",
"o. c #A97CE7",
"O. c #A574E8",
"+. c #A97CE8",
"@. c #B777E2",
"#. c #BD77E0",
"$. c #CE5AC2",
"%. c #DE43D5",
"&. c #D34DDE",
"*. c #C55DD7",
"=. c #C25FD9",
"-. c #CA5ADD",
";. c #DF5BD7",
":. c #E25CD6",
">. c #CE63C1",
",. c #C363CA",
"<. c #D366C6",
"1. c #D867C6",
"2. c #D366C9",
"3. c #DB69CE",
"4. c #CF68D0",
"5. c #C268DD",
"6. c #CB69DA",
"7. c #D363D5",
"8. c #D56BD6",
"9. c #DE6BD2",
"0. c #D26BD8",
"q. c #C271DD",
"w. c #CF75DA",
"e. c #DD77D6",
"r. c #D474DB",
"t. c #E361D5",
"y. c #E26CD3",
"u. c #C27EE0",
"i. c #AC83E7",
"p. c #AE8AE6",
"a. c #AC83E8",
"s. c #BD82E1",
"d. c #B393E7",
"f. c #B59AE6",
"g. c #B9A1E7",
"h. c #CD85DD",
"j. c #C180E0",
/* pixels */
"                      ~ ~ ~ [ p.) ) ~ ~ ~                       ",
"                  ~ ~ ~  .i.) [ ) p.[ ~ ) i.X.                  ",
"                ~ ~ ~ / ~  .~ ~ ~  .) ) ] ) ) P                 ",
"              ~ +.o.] ) [ i.) ~ ~ ~ ~ i. .~ ) ] ~               ",
"            o.X.[ [ ..o.)  .~ ] ) ~ )  .) ] ~ +.X.~             ",
"          ~  .[ ] P [ O.[ a.] ~ ) i.p.) ~ o. .[  .~ ~           ",
"        j / ~ ~  .X.~ ~ ) o.~ / ) f.f. .~ O. ./ ~ / ~ j         ",
"        ~ / ~ /  .X.[ +.) ~ / ~ ) o.i.a.[ ~ / ~ / ~ ~ ~         ",
"      P ] O. .] ~ ~ [ o.] / / / ) +.) o. .O.[ / ~ [  .] j       ",
"      X.) +. .[  .Y J I U ) +.X.) a.[ I D ( [ / /  .+.] j       ",
"      f.X./ [ i. .1 % % * ! g.f.) ~ K * % % 1 Y ] ` [ ~ ~       ",
"      p. .~ o.+.D $ X X O 3 p.p.) / > O . X $ H ) +.i.] j       ",
"      ~ [ ~ / ) D $ . . O > ~ /  ./ > O . . $ ^ o./ ) [ j       ",
"      M i.X.~ ) U & o o + 3 / ) p.) 3 + o o & H ) / X.i.M       ",
"      ~ ) ~ ~ a.+.S ; ; s ~ / ~ ] [ ~ 3 ; : L ) ~ / ~ ] ~       ",
"      h ~ ) ) ) ) ~ P  .f.d.~ / ) p.[ P P i.d.+./ ~ ~ ~ h       ",
"        ~ a.+.~ ] ~ ~  .f.d.) ) ~ ) / ) ) ) ) ) ~ ) ~ j         ",
"        h ) ) / ~ ) ) ) [ ) [ p.[ / / p. .~ ] ) ] ~ ] g         ",
"          j / ~ +.d.i.] ) ~ ~ [ ~ ~ ~  .) ~ ~ a.o.~ W r 8       ",
"    <.3.3.8.{ ~ i.g.p.] ] p # h h # p / ] ~ ~ ) [ K F T 6 9     ",
"  2.V 0.y.y.,.h ) X.[ ] ] j = @ @ = M ~ a. .o.+.h ; A ) W t     ",
"2.V ] _ { B     h ) ] ~ ` a.M - - M / ~ X.) ) N     5.6.&.t     ",
"8.' o.U c 4.1.1.l Z Z Z S H Z Z A Z Z Z Z Z Z d 2 k y.y.t.%.    ",
"9.6.o.c 7.y.y.y.5.H 5 k b z S , , , , Z z x b f S P 6.y.y.9.>.  ",
"$.e -.8.y.y.0.5.' P =.y.9.V P < , , , K q.e.y.*.f K P x 6.y.9.>.",
"  7 :.y.y.6._ L G m y.y.0.] K < A , , L i.r.y.y.n S 4 4 _ 9.y.y.",
"    3.y.y.#.! A b y.y.y.0.P S < Y L < A ~ 6.y.y.5.K Z U @.y.y.9.",
"    3.y.y.s.! J V y.y.y.0.Y Z A ~ i.4 < L 6.y.y.5.)  .' h.y.y.2.",
"    8.y.y.5.) ) q.y.y.y.r...) / ~ Y A L _ 0.y.y.-.} s.5.y.9.2.  ",
"    1.y.y.y.6.@.r.y.y.y.r.i.] W T ~ / _ 0.y.y.9.w i :.9.3.2.    ",
"      <.3.9.y.w q 9.y.y.8._ R y y R _ 0.y.y.y.9.w t q <.        ",
"          <.9.q 7   9.y.y.:.u t t u ;.y.y.9.9.                  "
};
