/* XPM */
static char *_76e2d6c18654202a63ad2d55889fa7eDvs26OkyGZbkqMaP[] = {
/* columns rows colors chars-per-pixel */
"32 32 4 1 ",
"  c None",
". c #2F2F2E",
"X c #76468E",
"o c #8E57AA",
/* pixels */
"                                ",
"                                ",
"                                ",
"                                ",
"                                ",
"                                ",
"                                ",
"                                ",
"                                ",
"               .....            ",
"              .Xoooo.           ",
"             .XXXXoXX.          ",
"            .XXoooXXo.          ",
"            .XoXXXXXX.          ",
"            .Xo...XX..          ",
"            .XoooooooX.         ",
"             ..Xooooo..         ",
"            .XX.XoXoXoo.        ",
"            ..oooXoXoX..        ",
"              ...Xo.X.          ",
"                .....           ",
"                                ",
"                                ",
"                                ",
"                                ",
"                                ",
"                                ",
"                                ",
"                                ",
"                                ",
"                                ",
"                                "
};
