/* XPM */
static char *_d87be0f41994654febf7969cb849718ACn5MH5ivbZ0koTi[] = {
/* columns rows colors chars-per-pixel */
"64 64 184 2 ",
"   c None",
".  c #110000",
"X  c #120000",
"o  c #130000",
"O  c #140000",
"+  c #150000",
"@  c #160000",
"#  c #170000",
"$  c #180000",
"%  c #190000",
"&  c #1A0000",
"*  c #1B0000",
"=  c #1C0000",
"-  c #1D0000",
";  c #1E0000",
":  c #1F0000",
">  c #200000",
",  c #210000",
"<  c #220000",
"1  c #230000",
"2  c #240000",
"3  c #250000",
"4  c #260000",
"5  c #290000",
"6  c #2A0000",
"7  c #2B0000",
"8  c #2C0000",
"9  c #2D0000",
"0  c #2E0000",
"q  c #2C0005",
"w  c #2F0006",
"e  c #320000",
"r  c #330001",
"t  c #330005",
"y  c #320007",
"u  c #340007",
"i  c #330009",
"p  c #370008",
"a  c #360009",
"s  c #370009",
"d  c #35000B",
"f  c #34000C",
"g  c #36000E",
"h  c #38000C",
"j  c #38000E",
"k  c #390010",
"l  c #3B0011",
"z  c #390012",
"x  c #3B0014",
"c  c #3A0015",
"v  c #3B0015",
"b  c #3B0117",
"n  c #3D0015",
"m  c #3E0015",
"M  c #3F0017",
"N  c #3D0118",
"B  c #3E0218",
"V  c #3E061C",
"C  c #400017",
"Z  c #400219",
"A  c #41021B",
"S  c #40051B",
"D  c #42051D",
"F  c #42071E",
"G  c #450722",
"H  c #410822",
"J  c #420822",
"K  c #430822",
"L  c #440823",
"P  c #450924",
"I  c #460A24",
"U  c #440C27",
"Y  c #480A26",
"T  c #480C29",
"R  c #490E2A",
"E  c #490F2B",
"W  c #4A0E2B",
"Q  c #4C0F2C",
"!  c #4B102D",
"~  c #49102E",
"^  c #4A112E",
"/  c #4D1130",
"(  c #4D1132",
")  c #4C1432",
"_  c #4E1433",
"`  c #4F1535",
"'  c #4E1736",
"]  c #501536",
"[  c #501537",
"{  c #501738",
"}  c #511838",
"|  c #511A39",
" . c #53193A",
".. c #53193D",
"X. c #521A3D",
"o. c #531B3E",
"O. c #551B3E",
"+. c #561B3F",
"@. c #551C3E",
"#. c #571C3F",
"$. c #571C40",
"%. c #571D41",
"&. c #581E43",
"*. c #581E44",
"=. c #581E45",
"-. c #582144",
";. c #582145",
":. c #592246",
">. c #5A2346",
",. c #5B2348",
"<. c #5B234B",
"1. c #5D254C",
"2. c #5D274C",
"3. c #5E264D",
"4. c #5E264F",
"5. c #5F2950",
"6. c #5F2A51",
"7. c #622B52",
"8. c #622B53",
"9. c #622D57",
"0. c #642C56",
"q. c #642D58",
"w. c #652D59",
"e. c #66305A",
"r. c #65325C",
"t. c #66325C",
"y. c #68325D",
"u. c #69345F",
"i. c #693461",
"p. c #6A3662",
"a. c #6B3764",
"s. c #6B3665",
"d. c #6B3765",
"f. c #6E3968",
"g. c #6E3A69",
"h. c #6F3A6A",
"j. c #703D6B",
"k. c #703F6D",
"l. c #713F6E",
"z. c #734070",
"x. c #734171",
"c. c #744173",
"v. c #754474",
"b. c #754575",
"n. c #774577",
"m. c #774678",
"M. c #78487A",
"N. c #7A487C",
"B. c #794B7E",
"V. c #7A4B7F",
"C. c #7E4C80",
"Z. c #7E4D81",
"A. c #7F4D83",
"S. c #805084",
"D. c #805185",
"F. c #815186",
"G. c #815289",
"H. c #83538A",
"J. c #84538B",
"K. c #84578D",
"L. c #85588E",
"P. c #86588F",
"I. c #865990",
"U. c #885A92",
"Y. c #895A93",
"T. c #895C94",
"R. c #8A5E95",
"E. c #8A5E97",
"W. c #8C5F98",
"Q. c #8D6199",
"!. c #8E629B",
"~. c #8F629C",
"^. c #8F649D",
"/. c #91669F",
"(. c #9266A0",
"). c #9268A1",
"_. c #966BA7",
"`. c #9A71AE",
"'. c #A580BE",
"]. c #B390D1",
"[. c #BF9DE1",
"{. c #BFA0E2",
"}. c #C9ADF0",
"|. c #CBAEF2",
/* pixels */
"                                                                                                                                ",
"                                                                                                                                ",
"                                                                                                                                ",
"                                                                                                                                ",
"                                                                                                                                ",
"                                                                                                                                ",
"                                                                                                                                ",
"                                                                                                                                ",
"                                                                                                                                ",
"                                                                                                                                ",
"                                                                                                                                ",
"                                                                                  > ^ V O                                       ",
"                                                                              X k l.M.m.M %                                     ",
"                                                                            O 6.J.U.I.(.%.2 O                                   ",
"                                                                % 5 f q x F - F ] 4.L.W.u.> O                                   ",
"                                      y K N %.` 2 ..0.=.&.7.T j M.K.M.n.n.T p k w. .,.I.m.2 O                                   ",
"                                x 2 =.M.z.i.z.u.G W.T.F.n.F.t.8 F.K.f.n.%.u.] 8 ] f.A ..u.T O                                   ",
"                            ` f.B.x ,.l.w.a.l.a.r n.V.c.c.n.l.8 F S.K.B._ c.m.}.}.1.f.( e.l X                                   ",
"                        -  .G.U.B.Z ] 0.=.V.B.i.p F W.W.F.f.4.Q - Q 7.u.>.a._.}.].t.j.$.H.j.5                                   ",
"                      > %. .c.K.u.j p f.u.i.n.j.] > 9.T.H.n.0.&.e T ^ z.3.A.d.'.[.C.] F F.n.] O                                 ",
"                    O E K.i.>.l.M.] 5 ..0.f.V.j...2 k B.f.u.l.0.8 Z ! j.A.T.A.C > 2 % w./.M.@.2 -                               ",
"                  X % F T.f.n.U.F.0.p Z ,.f.n.l.] 2 C u.B.U.H.n.r 8 j ( I.T.f.@.2 p k @.l.i.0.j - >                             ",
"                  p p 8 7.u.i.n.u.=.e p Y f.S.P.e.8 8 r @.K.`.B.C > T F w.w.,.0.5 u  .8 j L Q L - 2 -                           ",
"                X %.5 5 E i.0.j.n.i.r > 5 $.F.K.f.8 2 Y j.i.i.0.Y - 8 Z ,.i.>.0.j 8 ( L Z Z @.0.8 2 5 -                         ",
"                N t.k > 8 >.l.S.T.z.j - - Z 7.F I j - 8 0.f.=.,.Q - - I ..a.6.*.u % G ! ,.=.7.0.p - 8 O O                       ",
"                M %.M > % e I Q ( >.j O > M ( ] $.5 - e E >.4.4.k 5 O 2 8 e M k j - 5 L ..w.a.&.F - 5 - > -                     ",
"                - 8 8 > - O > > r j 5 2 - 8 p Q ] 2 O % M Y ..F G l % O 5 Z F ,. .2 8 Y ..(  .Q ( Z % u 5 2 O                   ",
"                8 p - % - 2 2 8 Y ( > - 8 u.m.M.u.5 O - y e p >.l.j.<.> - k g A.f.x e F F u p F k F - % e j 2                   ",
"                - x > O 5 u 2 j F #.> - O ( c.z.u.r % > C k u n.F.m...I - 8 - ] t.] 2 u C p j ] &.I - O 5 u u O                 ",
"                O p e O - u.M k 8 e - % O O % > ! 8 - 8 - 8 2 0.z.F   - 8 8 5 e Y F C r j l 8 e.m.i.8 2 > p p 8                 ",
"                X % - O O % 8 x j 8 - % % O - - 8 p - 2 e p - - >     O j 2 k _ p F &.j D j 8 D l.F.Y - r p x F O               ",
"                  X - % O % e 2 2 - 2 % % O k C j M 2 j r - > O       O I e p ! - > %.M N e O O 5 G 8 O 2 r 5 Q i               ",
"                      % % O O 8 &.2 u - - 5 u r N k 2 2 p O O       O k  .p 5 8 F <.e k k p % 2 % x k 2 8 8 > % O               ",
"                        O 2 2 % e e l 8 8 2 5 8 F e 8 8 O         O 8 Z p j 2 F I.B.> D k j 5 M % k u ] Z - > O O               ",
"                            O O % 2 > 2 l p j - - O O           O 2 M p p p e G.!.G.5 Z M p F p 2 C e 1.( - O % O               ",
"                                O O O O O O                     2 A x C I 8 Y !.!.C.% p K > ] 5 2 p 5 e.@.- 5 - O               ",
"                                                              O - j 2 e 2 O D /./.f.- F M - 8.8 8 ( 2 c.M - > O O               ",
"                                              M w.e.t.>.p X O D u Z 8 - X   T !.R.T - ! y 8 w.- u e 5 S.2 O % O O               ",
"                                          O ^ ,.b > p { j % j C F 5 O        .~.n.O O T r O O O Q l A U.% O % - O               ",
"                                          O O         X - 5 F ! p O X       j.^.n.O % Z > O   > ] 8 a.U.O O - j O               ",
"                                                    O p D p l D Y T M q O 8 T.U.8 O 8 p -     2 5 j I.W.8 O - > O               ",
"                                                O > r p e - O 2 F./.Q.U.=.<./.F.O O 2 2 O   O > O 6.~.~. .O - 2 %               ",
"                                            X O 2 C } M > O O   5 d.K.z.I K.T.` % O 8 8 O   O - O Q T./.l.% > O O               ",
"                                      X O - 2 k p > u > X           X p n./.t.O O 2 2 - O   O %     >.!.B.% - O O       > i >   ",
"                              X O O > - - Y l 8 % O - O           O ..K.L.m.U X - > % %     - O       _ m.- O O O >.a.n.F.A.n.1.",
"                  O O O O O - r 8 > ( 5 O O e O               5 @.m.F.T.K O   O M 8 % O   X > X         > O O % O ] f.T 8 % - ^ ",
"      X O O > - - r O O > > 5 Y - O - O                 > #.w.I S.>.O g       L j.Z O     X O               O - O O             ",
"    O 8 2 - O O O O X   O O O O                           % >   >           X > u 8 X     X %               O 8 - - O O         ",
"O O O O O O                                                                 O O % O       O O                 O - > Z O O % O O ",
"% O O                                                                   O O 2 % O         O O                   O O O % O O O O ",
"O O                                         O > 8 O O O O O O O O O - - j - O O           O O                       O O O O     ",
"                                          O O O X X O - p p 2 - - Z T D 8 O               O O X                                 ",
"                                                          X O O > O O O                     O - O                               ",
"                                                                                                                                ",
"                                                                                                                                ",
"                                                                                                                                ",
"                                                                                                                                ",
"                                                                                                                                ",
"                                                                                                                                ",
"                                                                                                                                ",
"                                                                                                                                ",
"                                                                                                                                ",
"                                                                                                                                ",
"                                                                                                                                "
};
