/* XPM */
static char *_2b6d537167543ea872fd248c9976a9aSh6cgGwSUWHArZ4C[] = {
/* columns rows colors chars-per-pixel */
"64 64 188 2 ",
"   c None",
".  c #010202",
"X  c #070807",
"o  c #0B0806",
"O  c #0D0C0A",
"+  c #150905",
"@  c #1C0B05",
"#  c #150E09",
"$  c #14120E",
"%  c #1E140D",
"&  c #1B1711",
"*  c #1D1A14",
"=  c #230D05",
"-  c #2D0F05",
";  c #2D1005",
":  c #22120A",
">  c #2C140B",
",  c #2F190E",
"<  c #341205",
"1  c #3D1405",
"2  c #341409",
"3  c #3A1608",
"4  c #34190D",
"5  c #3E1B0D",
"6  c #241B14",
"7  c #291D14",
"8  c #211F18",
"9  c #2C1F1A",
"0  c #3C1F11",
"q  c #331F14",
"w  c #2B241B",
"e  c #2C281F",
"r  c #26231B",
"t  c #37271A",
"y  c #30281D",
"u  c #3C2A1D",
"i  c #2E2A20",
"p  c #342E24",
"a  c #373126",
"s  c #3A3125",
"d  c #3D372A",
"f  c #3F3C2F",
"g  c #431606",
"h  c #491705",
"j  c #461807",
"k  c #4D1906",
"l  c #431708",
"z  c #42190A",
"x  c #4D1B09",
"c  c #531B05",
"v  c #5C1D06",
"b  c #531C09",
"n  c #5B1E09",
"m  c #621F05",
"M  c #52210D",
"N  c #5C210B",
"B  c #442212",
"V  c #4C2414",
"C  c #4C2816",
"Z  c #452B1B",
"A  c #4E2B18",
"S  c #5B2612",
"D  c #5B2C16",
"F  c #552C18",
"G  c #5B311B",
"H  c #56311E",
"J  c #652006",
"K  c #6C2105",
"L  c #63220A",
"P  c #6B2409",
"I  c #6A280F",
"U  c #742405",
"Y  c #7C2606",
"T  c #742609",
"R  c #78270A",
"E  c #71280D",
"W  c #7C290B",
"Q  c #632C15",
"!  c #6C2D13",
"~  c #612F18",
"^  c #7E2F10",
"/  c #722C11",
"(  c #6B341C",
")  c #6C381F",
"_  c #62301C",
"`  c #7D391A",
"'  c #402E20",
"]  c #463325",
"[  c #4D3524",
"{  c #583520",
"}  c #5E3B25",
"|  c #623728",
" . c #673923",
".. c #733C28",
"X. c #5D402A",
"o. c #4D4332",
"O. c #584A36",
"+. c #524937",
"@. c #684028",
"#. c #794325",
"$. c #614436",
"%. c #67533C",
"&. c #685C45",
"*. c #745A40",
"=. c #6A6048",
"-. c #79635B",
";. c #812705",
":. c #852905",
">. c #8B2A04",
",. c #832B0B",
"<. c #8C2D0A",
"1. c #932D05",
"2. c #982F07",
"3. c #932F0A",
"4. c #8E310E",
"5. c #9C3006",
"6. c #95310C",
"7. c #9C320B",
"8. c #833313",
"9. c #8B3412",
"0. c #8A3C1B",
"q. c #9C3711",
"w. c #9C3B14",
"e. c #A53307",
"r. c #AA3407",
"t. c #A4340B",
"y. c #AC360B",
"u. c #A7390F",
"i. c #AC390D",
"p. c #B83907",
"a. c #B3390C",
"s. c #BA3B0B",
"d. c #A23911",
"f. c #AC3D12",
"g. c #B33E11",
"h. c #C03B07",
"j. c #C43E0B",
"k. c #CA3F0A",
"l. c #9E421B",
"z. c #97421C",
"x. c #AE4217",
"c. c #B54215",
"v. c #BC4213",
"b. c #B94519",
"n. c #8C5432",
"m. c #935733",
"M. c #AB542A",
"N. c #C4410E",
"B. c #CD410D",
"V. c #D4420B",
"C. c #DB440B",
"Z. c #C44413",
"A. c #CB4512",
"S. c #CE4A16",
"D. c #CD4E1D",
"F. c #D04510",
"G. c #D44913",
"H. c #DC4C14",
"J. c #D94F19",
"K. c #D54E19",
"L. c #C9501E",
"P. c #DD521B",
"I. c #E0460B",
"U. c #E14D14",
"Y. c #E25017",
"T. c #E3531B",
"R. c #EA551B",
"E. c #E7581F",
"W. c #EA581E",
"Q. c #F05A1F",
"!. c #DB5A25",
"~. c #E75A22",
"^. c #EA5B21",
"/. c #ED5E24",
"(. c #F35E23",
"). c #ED672C",
"_. c #E3652E",
"`. c #F26025",
"'. c #F56226",
"]. c #F46025",
"[. c #F76529",
"{. c #F7652A",
"}. c #F66328",
"|. c #F4692E",
" X c #F4692D",
".X c #F56D31",
"XX c #F86C30",
"oX c #F7773B",
/* pixels */
"                                                                                                                                ",
"                                                                                                                                ",
"                                                                                                                                ",
"                                                                                                                                ",
"                                                                                                                                ",
"                                                                                                                                ",
"                                                                                                                                ",
"                                                                                                                                ",
"                                                                  L <.i.y.t.0.|                                                 ",
"                                                                <.k.R.(.R.I.k.e...                                              ",
"                                                              t.G.T.(.'.U.k.y.e.e.(                                             ",
"                                                            T J.}.{.{.{.(.V.3.s.V.7.                                            ",
"                                                            7.A.~.{.~.U.U.V.2.y.C.2.j                                           ",
"                                                          b a.y.~.{.Z.j.s.s.2.<.B.;.1                                           ",
"                                                          L s.C./.(.g.s.6.>.>.:.j.U 5                                           ",
"                                                          R j.R.{./.k.s.,.m K U >.K                                             ",
"                                                          E y.R.{.T.y.3.K K U m c h                                             ",
"                                                          T 3.T.}.s.,.K Y 1.m m m l                                             ",
"                                                        R u.t.A.T.7.U U m Y m m c                                               ",
"                                                        g.j.<.t.y.t.6.j.3.K h 1                                                 ",
"                                                      ] 9.v.R y.a.y.i.b.! $.U k                                                 ",
"                                                      9 ^ v.<.s.7.r.q.v.S 7 U v                                                 ",
"                                                      b f.f.,.i.y.y.8.D.8._ v x                                                 ",
"                                                      L j.s.s.a.j.H.a.A.a.1.v                                                   ",
"                                                        3.T.(.G.C..X^.B.Y T R             i % 5                                 ",
"                                L ,.3.<.                3.).XXE.T.oX X~.d.<.,.v       p i a   6 B z                             ",
"                              3.0.) S E 4.T             g..X!.P.T.XX^.Y.^.A.,.,.U V p             j                             ",
"                            y.8.s f   w } ,.          L !._.d.Z.J.|..XA.x.(.s.K ;.:.U m           c g                           ",
"                          ,.3.t         w Q I       T L. Xc.7.Z.A.W.{.!.,.L./.f.m K ;.1.1.>.:.U U v                             ",
"                          <.L             F W     T y.S.g.t.i.Z.u.A.D.^.<.q.T.~.S.7.m b n Y U Y v 1                             ",
"                        n i.P              .L j 7.G.j.3.T <.a.Z.3.j.d./.t.W 7.7.Z.J.g.P g                                       ",
"                          j.6.          e ! L s.R.T.t.,.T ,.s.g.3.j.3.U.i.P t.,.n R a.s.U g m                                   ",
"                          u.G.q.        Z ! :.j.a.3.J ,.T W a.6.W a.W a.7.n m     N Y y.y.m c 4.            v                   ",
"                          n a.J.Z.u.<.P { L n P N b P 9.q.4.<.,.P <.W 4.4.,.P         j <.K n g.Q         c h                   ",
"                            b W i.a.,.x V b < z W <.8.9.w.f.f.q.q.q.f.q.8.4.t.y.t.<.L   3 ^ v.g.m ,.n 3 k k                     ",
"                                k b l 2 ~ N   ,.I x P M 0 4 j ! 8./  .l - 4 [ z P ,.W R E g.4.N c t.a.K 1                       ",
"                                        L   b P 6.N.V.e.c = : p s * s 6 [ Z p 8 & = b P L n b   = v s.s.m                       ",
"                                      N x   8.K.W.S.3.h = < J x B L L J T S     * i & 4 j k         Y C.1.                      ",
"                    <.,.g               2 ,.L.b.Y g ; @ @ K r.t.Y Y U >.1.n         X p *.N         b k.r.c                     ",
"                  ,.3.              W <.6.a.v.9.< b Y U L 6.k.C.y.c c e.s.U o         # f M T         s.r.c                     ",
"                  <.7.          C t.<.K P P ,.a.3.k ,.7.,.9.q.i.t.k 3 ,.V.y.-         . .   N         a.>.j                     ",
"                  Y j.        s z.<.U m H y % P <.= =   - c L R ,.g   T j.N.c .         . # M 2.6.P t.r.v                       ",
"                    4.      @.w.,.2.f.A w a     T ;     l <.Z.<.L b   b t.V.<.+         . = g ;.r.a.r.K <                       ",
"                      P <.,.^ N v j.m.O.        I ]     b v.(.V.! x     T j.s.{ d X r # & F 1 l m m c <                         ",
"                                <.g.t e         S o.s   b Z.(.s.A ,     l 3.j.9.X.9 %.s k L                                     ",
"                                <.M.=.8         y . O   b s.(.q.6       + c t.k.a.,.W W W z                                     ",
"                                T x.] i       $ 8 -     j u.W.d.&       ; c v ,.t.6.,.E S                                       ",
"                                  t.n.&.* e $ O.G b       <.R.l.+.      1 :.U < b x 1 -.                                        ",
"                                  P w.l.` #.Y 8.b         Y K.g.t         t.t.      B  .                                        ",
"                                    v ,.3.,.R k           b f.V.F i       <.h.n     B J                                         ",
"                                                          < Y s.0.6       b a.7.    B P                                         ",
"                                                            h ,.a.N e       T y.<.P N k                                         ",
"                                                              v e.N.~ # a   7 z ,.y.t.x                                         ",
"                                                                c e.h.t...5 , 5 S g n ,.                                        ",
"                                                                  g U 1.e.2.:.U c =   m b     L                                 ",
"                                                                      g h l g <         b b n                                   ",
"                                                                                                                                ",
"                                                                                                                                ",
"                                                                                                                                ",
"                                                                                                                                ",
"                                                                                                                                ",
"                                                                                                                                ",
"                                                                                                                                ",
"                                                                                                                                "
};
